<svg width="104" height="50" viewBox="0 0 104 50" fill="none" xmlns="http://www.w3.org/2000/svg">
<path d="M34 31.6016C34 32.7604 33.7786 33.8477 33.3359 34.8633C32.8932 35.8789 32.2878 36.7708 31.5195 37.5391C30.7643 38.2943 29.8789 38.8932 28.8633 39.3359C27.8477 39.7786 26.7604 40 25.6016 40H11.5977V11.9922H25.6016C26.7604 11.9922 27.8477 12.2135 28.8633 12.6562C29.8789 13.099 30.7643 13.7044 31.5195 14.4727C32.2878 15.2279 32.8932 16.1133 33.3359 17.1289C33.7786 18.1445 34 19.2318 34 20.3906C34 20.9115 33.9284 21.4453 33.7852 21.9922C33.6419 22.5391 33.4401 23.0664 33.1797 23.5742C32.9193 24.082 32.6068 24.5443 32.2422 24.9609C31.8776 25.3776 31.474 25.7227 31.0312 25.9961C31.487 26.2435 31.8971 26.582 32.2617 27.0117C32.6263 27.4284 32.9388 27.8906 33.1992 28.3984C33.4596 28.9062 33.6549 29.4401 33.7852 30C33.9284 30.5469 34 31.0807 34 31.6016ZM17.2031 34.3945H25.6016C25.9922 34.3945 26.3568 34.3229 26.6953 34.1797C27.0339 34.0365 27.3268 33.8411 27.5742 33.5938C27.8346 33.3333 28.0365 33.0339 28.1797 32.6953C28.3229 32.3568 28.3945 31.9922 28.3945 31.6016C28.3945 31.2109 28.3229 30.8464 28.1797 30.5078C28.0365 30.1693 27.8346 29.8763 27.5742 29.6289C27.3268 29.3685 27.0339 29.1667 26.6953 29.0234C26.3568 28.8802 25.9922 28.8086 25.6016 28.8086H17.2031V34.3945ZM17.2031 23.2031H25.6016C25.9922 23.2031 26.3568 23.1315 26.6953 22.9883C27.0339 22.8451 27.3268 22.6497 27.5742 22.4023C27.8346 22.1419 28.0365 21.8424 28.1797 21.5039C28.3229 21.1523 28.3945 20.7812 28.3945 20.3906C28.3945 20 28.3229 19.6354 28.1797 19.2969C28.0365 18.9583 27.8346 18.6654 27.5742 18.418C27.3268 18.1576 27.0339 17.9557 26.6953 17.8125C26.3568 17.6693 25.9922 17.5977 25.6016 17.5977H17.2031V23.2031ZM57.9258 40H56.6367L54.5664 37.1289C54.0586 37.5846 53.5182 38.0143 52.9453 38.418C52.3854 38.8086 51.793 39.1536 51.168 39.4531C50.543 39.7396 49.8984 39.9674 49.2344 40.1367C48.5833 40.306 47.9193 40.3906 47.2422 40.3906C45.7708 40.3906 44.3841 40.1432 43.082 39.6484C41.793 39.1536 40.6602 38.4375 39.6836 37.5C38.7201 36.5495 37.9583 35.3906 37.3984 34.0234C36.8385 32.6562 36.5586 31.1003 36.5586 29.3555C36.5586 27.7279 36.8385 26.237 37.3984 24.8828C37.9583 23.5156 38.7201 22.3438 39.6836 21.3672C40.6602 20.3906 41.793 19.6354 43.082 19.1016C44.3841 18.5547 45.7708 18.2812 47.2422 18.2812C47.9193 18.2812 48.5898 18.3659 49.2539 18.5352C49.918 18.7044 50.5625 18.9388 51.1875 19.2383C51.8125 19.5378 52.4049 19.8893 52.9648 20.293C53.5378 20.6966 54.0716 21.1328 54.5664 21.6016L56.6367 19.1211H57.9258V40ZM52.5547 29.3555C52.5547 28.6263 52.4115 27.9232 52.125 27.2461C51.8516 26.556 51.474 25.9505 50.9922 25.4297C50.5104 24.8958 49.944 24.4727 49.293 24.1602C48.6549 23.8346 47.9714 23.6719 47.2422 23.6719C46.513 23.6719 45.8229 23.7956 45.1719 24.043C44.5339 24.2904 43.974 24.6549 43.4922 25.1367C43.0234 25.6185 42.6523 26.2174 42.3789 26.9336C42.1055 27.6367 41.9688 28.444 41.9688 29.3555C41.9688 30.2669 42.1055 31.0807 42.3789 31.7969C42.6523 32.5 43.0234 33.0924 43.4922 33.5742C43.974 34.056 44.5339 34.4206 45.1719 34.668C45.8229 34.9154 46.513 35.0391 47.2422 35.0391C47.9714 35.0391 48.6549 34.8828 49.293 34.5703C49.944 34.2448 50.5104 33.8216 50.9922 33.3008C51.474 32.7669 51.8516 32.1615 52.125 31.4844C52.4115 30.7943 52.5547 30.0846 52.5547 29.3555ZM81.2656 40H74.7422L70.582 33.5938L66.3828 40H59.8594L67.4961 29.2773L59.8594 18.9648H66.3828L70.582 24.9609L74.7422 18.9648H81.2656L73.6094 29.2773L81.2656 40ZM89.7422 38.0078C89.7422 38.4766 89.6576 38.9193 89.4883 39.3359C89.319 39.7396 89.0846 40.0911 88.7852 40.3906C88.4857 40.6901 88.1341 40.9245 87.7305 41.0938C87.3268 41.276 86.8906 41.3672 86.4219 41.3672C85.9661 41.3672 85.5299 41.276 85.1133 41.0938C84.7096 40.9245 84.3516 40.6901 84.0391 40.3906C83.7396 40.0911 83.4987 39.7396 83.3164 39.3359C83.1471 38.9193 83.0625 38.4766 83.0625 38.0078C83.0625 37.5521 83.1471 37.1224 83.3164 36.7188C83.4987 36.3151 83.7396 35.9635 84.0391 35.6641C84.3516 35.3646 84.7096 35.1302 85.1133 34.9609C85.5299 34.7786 85.9661 34.6875 86.4219 34.6875C86.8906 34.6875 87.3268 34.7786 87.7305 34.9609C88.1341 35.1302 88.4857 35.3646 88.7852 35.6641C89.0846 35.9635 89.319 36.3151 89.4883 36.7188C89.6576 37.1224 89.7422 37.5521 89.7422 38.0078Z" fill="#465DAE"/>
</svg>
