<svg xmlns="http://www.w3.org/2000/svg" height="1000" width="1718" viewBox="0 0 1804 1050"><path fill="#c9a2cd" d="M0 0h1718v1000H0z"/><path d="M320.802 824V324.503c-21.6 17.1-85.499 50.399-108.899 62.1l-33.3 17.1-43.2-97.199 38.7-18c73.799-34.2 142.199-77.4 170.999-99.899h110.7V824h-135zM1025.498 691.701V824H903.099V691.701H616.902V573.802l246.597-385.197h161.999v404.097h78.3v99h-78.3zM903.099 300.204h-1.8c-2.7 10.8-20.7 49.5-45.899 89.099L725.8 592.701h177.298V300.204zM1529.496 691.701V824h-122.399V691.701H1120.9V573.802l246.598-385.197h161.999v404.097h78.3v99h-78.301zm-122.399-391.497h-1.8c-2.7 10.8-20.7 49.5-45.899 89.099l-129.6 203.398h177.299V300.204z"/></svg>