<svg width="24" height="24" viewBox="0 0 24 24" fill="none" xmlns="http://www.w3.org/2000/svg">
<g clip-path="url(#clip0_422_37)">
<path d="M20.6707 13.649C20.6707 12.4197 19.9796 11.6998 19.1102 11.22L18.4496 10.86C18.0601 10.6497 17.7297 10.3194 17.7297 9.89949C17.7297 9.41958 18.1193 9.08925 18.6895 9.08925C19.0798 9.08925 19.4397 9.23963 19.7101 9.35961C20.13 9.56916 20.4003 9.2996 20.5195 8.8501C20.6707 8.33982 20.4603 8.15988 20.0996 7.97993C19.7397 7.79995 19.2302 7.6792 18.7207 7.6792C17.3098 7.6792 16.1397 8.60938 16.1397 10.1098C16.1397 11.2799 16.7396 11.9406 17.7002 12.4797L18.3896 12.87C18.8103 13.1099 19.0798 13.4395 19.0798 13.8897C19.0798 14.4592 18.5399 14.7296 17.9993 14.7296C17.5802 14.7296 17.0699 14.5496 16.7996 14.4296C16.3501 14.2193 16.1101 14.4896 15.9598 14.9703C15.8094 15.4798 16.0501 15.6901 16.4404 15.8701C16.7996 16.0492 17.4298 16.1996 17.9993 16.1996C19.4693 16.1996 20.6707 15.2102 20.6707 13.649ZM15.4191 13.3499V8.36943C15.4191 7.94952 15 7.73997 14.6097 7.73997C14.1905 7.73997 13.8002 7.94952 13.8002 8.36943V13.1395C13.8002 14.0993 13.4995 14.7296 12.7205 14.7296C11.9695 14.7296 11.6096 14.1297 11.6096 13.1395V8.36943C11.6096 7.94952 11.1601 7.73997 10.7698 7.73997C10.3195 7.73997 9.92994 7.94952 9.92994 8.36943V13.3195C9.92994 15.2998 10.9201 16.1996 12.7205 16.1996C14.3393 16.1996 15.4191 15.2702 15.4191 13.3499ZM9.14934 13.709C9.14934 12.3293 8.18956 11.8198 7.67931 11.7295V11.6998C8.27993 11.3991 9.00056 10.8297 9.00056 9.80988C9.00056 8.4302 7.80006 7.77034 6.62993 7.77034H4.38004C3.96014 7.77034 3.72021 8.0999 3.72021 8.4598V15.4798C3.72021 15.8997 4.14008 16.11 4.52962 16.11H6.6603C7.94964 16.11 9.14934 15.4198 9.14934 13.709ZM7.32015 10.2002C7.32015 10.98 6.6603 11.2503 5.97007 11.2503H5.33982V9.15003H5.97007C6.6899 9.15003 7.32015 9.38998 7.32015 10.2002ZM7.56011 13.5298C7.56011 14.34 7.10983 14.7296 6.15002 14.7296H5.42942V12.3901H6.15002C6.74987 12.3901 7.56011 12.5996 7.56011 13.5298Z" fill="#222222"/>
<path d="M23.2202 1.55963H0.780569C0.349763 1.55963 0 1.21064 0 0.779832C0 0.349026 0.349763 0 0.780569 0H23.2202C23.651 0 24 0.349026 24 0.779832C24 1.21064 23.651 1.55963 23.2202 1.55963Z" fill="#222222"/>
<path d="M23.2202 23.9996H0.779768C0.349763 23.9996 0 23.6506 0 23.2198C0 22.7897 0.349763 22.4399 0.779768 22.4399H23.2202C23.651 22.4399 24 22.7897 24 23.2198C24 23.6506 23.651 23.9996 23.2202 23.9996Z" fill="#222222"/>
</g>
<defs>
<clipPath id="clip0_422_37">
<rect width="24" height="24" fill="white"/>
</clipPath>
</defs>
</svg>
