<svg width="24" height="20" viewBox="0 0 24 20" fill="none" xmlns="http://www.w3.org/2000/svg">
<rect x="0.5" y="0.5" width="23" height="15" rx="1.5" stroke="black"/>
<path d="M4.5 15.5L0.5 19L9 15.5" stroke="black"/>
<path d="M7.83239 9.12358C7.52557 9.12358 7.26278 9.01562 7.04403 8.79972C6.82813 8.58381 6.72159 8.32244 6.72443 8.01562C6.72159 7.71449 6.82813 7.45739 7.04403 7.24432C7.26278 7.02841 7.52557 6.92045 7.83239 6.92045C8.12216 6.92045 8.37784 7.02841 8.59943 7.24432C8.82386 7.45739 8.9375 7.71449 8.94034 8.01562C8.9375 8.22017 8.88352 8.40625 8.77841 8.57386C8.67614 8.74148 8.54119 8.875 8.37358 8.97443C8.20881 9.07386 8.02841 9.12358 7.83239 9.12358ZM11.4886 9.12358C11.1818 9.12358 10.919 9.01562 10.7003 8.79972C10.4844 8.58381 10.3778 8.32244 10.3807 8.01562C10.3778 7.71449 10.4844 7.45739 10.7003 7.24432C10.919 7.02841 11.1818 6.92045 11.4886 6.92045C11.7784 6.92045 12.0341 7.02841 12.2557 7.24432C12.4801 7.45739 12.5938 7.71449 12.5966 8.01562C12.5938 8.22017 12.5398 8.40625 12.4347 8.57386C12.3324 8.74148 12.1974 8.875 12.0298 8.97443C11.8651 9.07386 11.6847 9.12358 11.4886 9.12358ZM15.1449 9.12358C14.8381 9.12358 14.5753 9.01562 14.3565 8.79972C14.1406 8.58381 14.0341 8.32244 14.0369 8.01562C14.0341 7.71449 14.1406 7.45739 14.3565 7.24432C14.5753 7.02841 14.8381 6.92045 15.1449 6.92045C15.4347 6.92045 15.6903 7.02841 15.9119 7.24432C16.1364 7.45739 16.25 7.71449 16.2528 8.01562C16.25 8.22017 16.196 8.40625 16.0909 8.57386C15.9886 8.74148 15.8537 8.875 15.6861 8.97443C15.5213 9.07386 15.3409 9.12358 15.1449 9.12358Z" fill="black"/>
</svg>
