<svg width="20" height="20" viewBox="0 0 20 20" fill="none" xmlns="http://www.w3.org/2000/svg">
<rect x="0.5" y="0.5" width="19" height="19" rx="1.5" stroke="black"/>
<path d="M5.66058 14V7.45456H7.74438V14H5.66058ZM6.70461 6.69178C6.412 6.69178 6.16058 6.59519 5.95035 6.40201C5.74012 6.20598 5.63501 5.97019 5.63501 5.69462C5.63501 5.42189 5.74012 5.18894 5.95035 4.99576C6.16058 4.79973 6.412 4.70172 6.70461 4.70172C7.00007 4.70172 7.25149 4.79973 7.45887 4.99576C7.6691 5.18894 7.77421 5.42189 7.77421 5.69462C7.77421 5.97019 7.6691 6.20598 7.45887 6.40201C7.25149 6.59519 7.00007 6.69178 6.70461 6.69178Z" fill="black"/>
<path d="M11.1545 10.2671V14H9.07073V7.45456H11.0523V8.65627H11.1247C11.2696 8.2557 11.5168 7.94178 11.8662 7.71451C12.2156 7.48439 12.6318 7.36934 13.1148 7.36934C13.575 7.36934 13.9741 7.47303 14.3122 7.68041C14.6531 7.88496 14.9173 8.17189 15.1048 8.54121C15.2952 8.90769 15.3889 9.33666 15.3861 9.82814V14H13.3023V10.2372C13.3051 9.8736 13.2128 9.58951 13.0253 9.38496C12.8406 9.18041 12.5835 9.07814 12.254 9.07814C12.0352 9.07814 11.842 9.12644 11.6744 9.22303C11.5097 9.31678 11.3818 9.45172 11.2909 9.62786C11.2028 9.80399 11.1574 10.0171 11.1545 10.2671Z" fill="black"/>
</svg>
