<svg width="24" height="17" viewBox="0 0 24 17" fill="none" xmlns="http://www.w3.org/2000/svg">
<path d="M22.8623 7.82197C23.0762 7.89512 23.0236 8.2112 22.7976 8.2112L0.200001 8.21123C0.089544 8.21123 -1.78814e-07 8.12168 -1.78814e-07 8.01123L-1.78814e-07 0.279809C-1.78814e-07 0.142632 0.134951 0.0461715 0.264742 0.0905772L22.8623 7.82197Z" fill="#222222"/>
<path d="M22.7976 8.53326C23.0236 8.53326 23.0761 8.84934 22.8623 8.9225L0.264742 16.6539C0.134951 16.6983 -1.78814e-07 16.6018 -1.78814e-07 16.4647V8.73326C-1.78814e-07 8.62281 0.0895429 8.53326 0.2 8.53326L22.7976 8.53326Z" fill="#222222"/>
</svg>
