<svg width="24" height="20" viewBox="0 0 24 20" fill="none" xmlns="http://www.w3.org/2000/svg">
<rect x="7.57892" y="2.52631" width="16.4211" height="1.26316" rx="0.631579" fill="black"/>
<rect x="1.24359" y="4.04736" width="6.31579" height="1.26316" rx="0.631579" transform="rotate(-39.8543 1.24359 4.04736)" fill="black"/>
<rect x="1.01093" y="1.6123" width="3.27626" height="1.26613" rx="0.633064" transform="rotate(52.9764 1.01093 1.6123)" fill="black"/>
<rect x="7.57892" y="9.52631" width="16.4211" height="1.26316" rx="0.631579" fill="black"/>
<rect x="1.24359" y="11.0474" width="6.31579" height="1.26316" rx="0.631579" transform="rotate(-39.8543 1.24359 11.0474)" fill="black"/>
<rect x="1.01093" y="8.6123" width="3.27626" height="1.26613" rx="0.633064" transform="rotate(52.9764 1.01093 8.6123)" fill="black"/>
<rect x="7.57892" y="16.5263" width="16.4211" height="1.26316" rx="0.631579" fill="black"/>
<rect x="1.24359" y="18.0474" width="6.31579" height="1.26316" rx="0.631579" transform="rotate(-39.8543 1.24359 18.0474)" fill="black"/>
<rect x="1.01093" y="15.6123" width="3.27626" height="1.26613" rx="0.633064" transform="rotate(52.9764 1.01093 15.6123)" fill="black"/>
</svg>
