<svg width="11" height="24" viewBox="0 0 11 24" fill="none" xmlns="http://www.w3.org/2000/svg">
<path d="M1.44 22.56V7.92C1.44 7.52236 1.11765 7.2 0.72 7.2C0.322355 7.2 0 6.87765 0 6.48V0.24C0 0.107452 0.107452 0 0.24 0C0.372548 0 0.48 0.107452 0.48 0.24V5.28C0.48 5.5451 0.694903 5.76 0.96 5.76C1.2251 5.76 1.44 5.5451 1.44 5.28V0.24C1.44 0.107452 1.54745 0 1.68 0C1.81255 0 1.92 0.107452 1.92 0.24V5.28C1.92 5.5451 2.1349 5.76 2.4 5.76C2.6651 5.76 2.88 5.5451 2.88 5.28V0.24C2.88 0.107452 2.98745 0 3.12 0C3.25255 0 3.36 0.107452 3.36 0.24V5.28C3.36 5.5451 3.5749 5.76 3.84 5.76C4.1051 5.76 4.32 5.5451 4.32 5.28V0.24C4.32 0.107452 4.42745 0 4.56 0C4.69255 0 4.8 0.107452 4.8 0.24V6.48C4.8 6.87765 4.47764 7.2 4.08 7.2C3.68236 7.2 3.36 7.52236 3.36 7.92V22.56C3.36 23.0902 2.93019 23.52 2.4 23.52C1.86981 23.52 1.44 23.0902 1.44 22.56Z" fill="#0065FF"/>
<path d="M7.68005 22.4943V1C7.68005 0.447709 8.12871 -9.87572e-06 8.681 4.235e-06C9.20029 1.75024e-05 9.634 0.397501 9.67819 0.914905L10.5252 10.8325C10.5476 11.0937 10.4664 11.3532 10.2993 11.5551L9.82966 12.1226C9.68125 12.3019 9.60005 12.5274 9.60005 12.7601V22.4943C9.60005 22.7177 9.5221 22.9342 9.37963 23.1063C8.9957 23.5703 8.2844 23.5703 7.90048 23.1063C7.75801 22.9342 7.68005 22.7177 7.68005 22.4943Z" fill="#0065FF"/>
</svg>
