<svg width="26" height="21" viewBox="0 0 26 21" fill="none" xmlns="http://www.w3.org/2000/svg">
<path d="M19.6667 8.89331C19.6667 6.50398 16.04 6.33331 14.3334 6.33331" stroke="black" stroke-width="0.5"/>
<path d="M19.6667 9.74664C19.6667 12.136 16.04 12.3066 14.3334 12.3066" stroke="black" stroke-width="0.5"/>
<path d="M14.5468 12.3066L15.6845 11.0266L14.5468 10.1733L15.6845 9.31998L14.5468 8.46665L15.6845 7.61331L14.5468 6.33331" stroke="black" stroke-width="0.5"/>
<path d="M19.6667 9.74664C19.6667 12.136 23.2933 12.3066 25 12.3066" stroke="black" stroke-width="0.5"/>
<path d="M19.6667 8.89331C19.6667 6.50398 23.2933 6.33331 25 6.33331" stroke="black" stroke-width="0.5"/>
<path d="M24.7866 6.33331L23.6488 7.61331L24.7866 8.46664L23.6488 9.31997L24.7866 10.1733L23.6488 11.0266L24.7866 12.3066" stroke="black" stroke-width="0.5"/>
<path d="M12.6353 15.0371C13.7209 12.9087 10.5678 11.1088 9.04749 10.3333" stroke="black" stroke-width="0.5"/>
<path d="M12.2476 15.7973C11.1619 17.9258 7.85368 16.4299 6.33337 15.6544" stroke="black" stroke-width="0.5"/>
<path d="M6.52351 15.7513L8.11866 15.1281L7.49286 13.8509L8.89413 13.6078L8.26833 12.3306L9.66961 12.0875L9.23767 10.4302" stroke="black" stroke-width="0.5"/>
<path d="M12.2476 15.7973C11.1619 17.9258 14.315 19.7257 15.8353 20.5012" stroke="black" stroke-width="0.5"/>
<path d="M12.6353 15.0372C13.7209 12.9087 17.0291 14.4046 18.5494 15.18" stroke="black" stroke-width="0.5"/>
<path d="M18.3593 15.0831L16.7642 15.7064L17.39 16.9835L15.9887 17.2267L16.6145 18.5038L15.2132 18.747L15.6451 20.4042" stroke="black" stroke-width="0.5"/>
<path d="M7.24518 7.1088C8.84767 8.88106 11.6522 6.5753 12.9181 5.43066" stroke="black" stroke-width="0.5"/>
<path d="M6.67295 6.47585C5.07046 4.70359 7.64605 2.14464 8.91195 1.00001" stroke="black" stroke-width="0.5"/>
<path d="M8.75366 1.14306L8.7682 2.85558L10.1845 2.72544L9.91284 4.12149L11.3291 3.99135L11.0575 5.38739L12.7599 5.57373" stroke="black" stroke-width="0.5"/>
<path d="M6.67291 6.47586C5.07042 4.70359 2.26591 7.00935 1 8.15399" stroke="black" stroke-width="0.5"/>
<path d="M7.24514 7.1088C8.84763 8.88107 6.27205 11.44 5.00614 12.5846" stroke="black" stroke-width="0.5"/>
<path d="M5.16443 12.4416L5.14989 10.7291L3.73364 10.8592L4.00525 9.46317L2.589 9.59331L2.86062 8.19726L1.1582 8.01093" stroke="black" stroke-width="0.5"/>
</svg>
