<svg width="24" height="23" viewBox="0 0 24 23" fill="none" xmlns="http://www.w3.org/2000/svg">
<path d="M4.09199 8.80768H5.13885C5.38635 8.80768 5.5966 8.98875 5.63332 9.23351L6.71793 16.4643C6.76328 16.7666 6.52915 17.0384 6.22347 17.0384H3.00738C2.70169 17.0384 2.46757 16.7666 2.51291 16.4643L3.59753 9.23351C3.63424 8.98875 3.8445 8.80768 4.09199 8.80768Z" stroke="black"/>
<circle cx="4.61538" cy="4.61538" r="4.11538" stroke="black"/>
<path d="M11.4768 13.4231H12.5236C12.7711 13.4231 12.9814 13.6042 13.0181 13.8489L14.1027 21.0797C14.148 21.382 13.9139 21.6539 13.6082 21.6539H10.3921C10.0865 21.6539 9.85233 21.382 9.89768 21.0797L10.9823 13.8489C11.019 13.6042 11.2293 13.4231 11.4768 13.4231Z" stroke="black"/>
<circle cx="12.0002" cy="9.23074" r="4.11538" stroke="black"/>
<path d="M18.861 8.80768H19.9079C20.1554 8.80768 20.3656 8.98875 20.4024 9.23351L21.487 16.4643C21.5323 16.7666 21.2982 17.0384 20.9925 17.0384H17.7764C17.4707 17.0384 17.2366 16.7666 17.282 16.4643L18.3666 9.23351C18.4033 8.98875 18.6135 8.80768 18.861 8.80768Z" stroke="black"/>
<circle cx="19.3844" cy="4.61538" r="4.11538" stroke="black"/>
</svg>
