<svg width="24" height="25" viewBox="0 0 24 25" fill="none" xmlns="http://www.w3.org/2000/svg">
<path d="M20.1291 11.3144C22.8387 13.2499 21.2903 17.5079 20.5161 18.2821M19.742 19.0563L19.3549 19.4434" stroke="black" stroke-width="0.5"/>
<path fill-rule="evenodd" clip-rule="evenodd" d="M10.5883 6.34314C4.62613 6.86154 0 10.6226 0 15.1854C0 20.1025 5.37258 24.0886 12 24.0886C18.6274 24.0886 24 20.1025 24 15.1854C24 10.8044 19.7351 7.16246 14.1177 6.42037V6.92484C16.4783 7.24707 18.5778 8.09724 20.1874 9.29142C22.2645 10.8325 23.5 12.9219 23.5 15.1854C23.5 17.449 22.2645 19.5383 20.1874 21.0794C18.1103 22.6205 15.2172 23.5886 12 23.5886C8.78276 23.5886 5.88973 22.6205 3.81264 21.0794C1.7355 19.5383 0.5 17.449 0.5 15.1854C0.5 12.9219 1.7355 10.8325 3.81264 9.29142C5.58095 7.97945 7.94063 7.0827 10.5883 6.84507V6.34314Z" fill="black"/>
<path d="M13.9187 6.57139L16.3327 7.83756L14.0601 7.60578L13.572 7.55599L13.8187 7.98018L15.0039 10.0179L12.4452 7.67028L12.3027 7.5395L12.1403 7.64464L9.05571 9.64217L10.5474 8.02393L10.9872 7.54674L10.3409 7.60552L7.85826 7.83127L10.6322 6.60157L11.2236 6.33942L10.6096 6.13574L8.52633 5.44456L12.2658 5.59981L12.2658 5.60003L12.2762 5.60003L14.7096 5.60003L14.7196 5.60003L14.7294 5.59924L15.6569 5.5256L13.9532 6.11368L13.4061 6.30254L13.9187 6.57139Z" stroke="black" stroke-width="0.5"/>
<path d="M17.1715 3.92837L13.4794 4.21239C13.0723 4.2437 12.757 4.57977 12.7501 4.98649L12.7385 5.10339C12.7134 5.35686 12.5002 5.54999 12.2455 5.54999C11.9718 5.54999 11.75 5.32816 11.75 5.05452V4.20472C11.75 3.88776 11.9493 3.60502 12.2477 3.49841L16.6929 1.91084C16.7161 1.90256 16.7266 1.90647 16.7312 1.90848C16.7392 1.91195 16.7503 1.92062 16.7587 1.93613C16.767 1.95163 16.7681 1.96569 16.7666 1.97424C16.7657 1.97921 16.7632 1.9901 16.7435 2.00488C16.414 2.25198 16.4598 2.7594 16.8281 2.94358L17.3166 3.18782C17.6718 3.3654 17.5675 3.89792 17.1715 3.92837Z" fill="black" stroke="black" stroke-width="0.5"/>
</svg>
