<svg width="24" height="24" viewBox="0 0 24 24" fill="none" xmlns="http://www.w3.org/2000/svg">
<g clip-path="url(#clip0_422_6)">
<path d="M23.2201 1.55998H0.779925C0.349246 1.55998 0 1.21073 0 0.780056C0 0.349246 0.349246 0 0.779925 0H23.2201C23.6508 0 24 0.349246 24 0.780056C24 1.21073 23.6508 1.55998 23.2201 1.55998Z" fill="#222222"/>
<path d="M23.2201 24.0001H0.779925C0.349159 24.0001 0 23.6509 0 23.2201C0 22.7893 0.349159 22.4401 0.779925 22.4401H23.2201C23.6508 22.4401 24 22.7893 24 23.2201C24 23.6509 23.6508 24.0001 23.2201 24.0001Z" fill="#222222"/>
<path d="M21.2643 19.9679H2.3999V18.9599H21.2643C21.4499 18.9599 21.6003 19.1104 21.6003 19.2959V19.6319C21.6003 19.8175 21.4499 19.9679 21.2643 19.9679Z" fill="#222222"/>
<path d="M21.601 14.5493C21.3793 12.527 20.5347 10.6635 19.1587 9.16026C18.7165 8.67704 18.0872 8.39992 17.4324 8.39992H9.38674L11.1398 6.95914C11.2341 6.88168 11.2888 6.76594 11.2888 6.64394C11.2887 6.52186 11.234 6.4062 11.1398 6.32866L8.06866 3.80547C7.95256 3.71014 7.78122 3.72693 7.68588 3.84297L7.51266 4.05379C7.41746 4.16954 7.43424 4.34049 7.54999 4.43556L10.2381 6.64403L8.10166 8.39992H2.39941V9.47996L5.95163 9.48005C6.04443 9.48005 6.1197 9.55532 6.1197 9.64803V14.2321C6.1197 14.3248 6.04443 14.4001 5.95163 14.4001L2.40011 14.4V18H18.1201C19.7395 18 21.1498 16.905 21.5497 15.3372C21.6048 15.1217 21.627 14.7862 21.601 14.5493ZM9.71991 16.7521C9.71991 16.8449 9.64472 16.92 9.55193 16.92H7.36767C7.27492 16.92 7.19965 16.8449 7.19965 16.7521V9.64803C7.19965 9.55532 7.27492 9.48005 7.36767 9.48005H9.55193C9.64472 9.48005 9.71991 9.55532 9.71991 9.64803V16.7521ZM13.3201 16.7521C13.3201 16.8449 13.2448 16.92 13.152 16.92H10.9679C10.8751 16.92 10.7999 16.8449 10.7999 16.7521V9.64803C10.7999 9.55532 10.8751 9.48005 10.9679 9.48005H13.152C13.2448 9.48005 13.3201 9.55532 13.3201 9.64803V16.7521ZM19.4621 14.4L14.5681 14.4001C14.4753 14.4001 14.4 14.3248 14.4 14.2321V9.64803C14.4 9.55532 14.4753 9.48005 14.5681 9.48005L17.4324 9.47996C17.7825 9.47996 18.1186 9.62411 18.3553 9.8821C19.2711 10.8801 19.9214 12.0577 20.2735 13.3396C20.42 13.8733 20.0156 14.4 19.4621 14.4Z" fill="#222222"/>
</g>
<defs>
<clipPath id="clip0_422_6">
<rect width="24" height="24" fill="white"/>
</clipPath>
</defs>
</svg>
