<svg width="24" height="24" viewBox="0 0 24 24" fill="none" xmlns="http://www.w3.org/2000/svg">
<g clip-path="url(#clip0_422_26)">
<path d="M18.4799 24H5.52001C2.47624 24 0 21.5238 0 18.48V5.52001C0 2.47624 2.47624 0 5.52001 0H18.4799C21.5238 0 24 2.47624 24 5.52001V18.48C24 21.5238 21.5238 24 18.4799 24ZM5.52001 1.55999C3.33645 1.55999 1.56005 3.33645 1.56005 5.52001V18.48C1.56005 20.6635 3.33645 22.4399 5.52001 22.4399H18.4799C20.6635 22.4399 22.4399 20.6635 22.4399 18.48V5.52001C22.4399 3.33645 20.6635 1.55999 18.4799 1.55999H5.52001Z" fill="#222222"/>
<path d="M15.5844 16.713C15.6371 16.6771 15.6882 16.6407 15.7262 16.6033C16.1572 16.2551 16.56 15.7193 16.8524 14.889C17.2613 13.7252 17.5502 12.6859 17.6306 11.4089C17.741 9.83325 17.0923 7.38285 16.6622 6.23987L16.5129 5.8371C16.4204 5.58106 16.0676 5.03565 15.4413 4.38245C14.903 3.82228 14.3853 3.78131 13.598 3.78131H10.4018C9.61394 3.78131 9.09689 3.82228 8.55848 4.38245C7.93109 5.03463 7.57889 5.58055 7.48735 5.8371L7.3376 6.24187C6.9075 7.38285 6.25885 9.83325 6.36858 11.4094C6.44757 12.6849 6.73748 13.7227 7.14837 14.889C7.43927 15.7198 7.84153 16.2551 8.27367 16.6033C8.31464 16.6387 8.36314 16.6751 8.41632 16.7115L6.08884 19.3011C5.8991 19.5111 5.8991 19.8531 6.08884 20.0616C6.27704 20.271 6.58311 20.271 6.77192 20.0616L7.57535 19.1695H16.4249L17.2279 20.0616C17.4156 20.271 17.7227 20.271 17.9109 20.0616C18.1007 19.8531 18.1007 19.5111 17.9109 19.3011L15.5844 16.713ZM14.8032 15.7689C14.3615 15.7689 14.0028 15.4117 14.0028 14.9695C14.0028 14.5282 14.3615 14.1715 14.8032 14.1715C15.2459 14.1715 15.6037 14.5282 15.6037 14.9695C15.6037 15.4117 15.2459 15.7689 14.8032 15.7689ZM7.56627 10.6429C7.07751 10.6429 7.84506 6.35365 8.19516 6.35365H15.7175C16.0975 6.35365 16.9901 10.6429 16.392 10.6429H7.56627ZM8.38092 14.9695C8.38092 14.5282 8.73815 14.1715 9.18036 14.1715C9.62359 14.1715 9.97978 14.5282 9.97978 14.9695C9.97978 15.4117 9.62359 15.7689 9.18036 15.7689C8.73815 15.7689 8.38092 15.4117 8.38092 14.9695ZM8.54281 18.0928L9.4004 17.1396C9.8184 17.2362 10.2029 17.2362 10.4832 17.2362H11.3651H12.6326H13.516C13.7964 17.2362 14.1814 17.2362 14.5993 17.1396L15.4574 18.0928H8.54281Z" fill="#222222"/>
</g>
<defs>
<clipPath id="clip0_422_26">
<rect width="24" height="24" fill="white"/>
</clipPath>
</defs>
</svg>
