<svg xmlns="http://www.w3.org/2000/svg" height="1000" width="1718" viewBox="0 0 1804 1050"><path fill="#ffcd02" d="M0 0h1718v1000H0z"/><path d="M148.903 824v-83.699c16.2-73.8 89.099-138.6 173.699-212.398 42.3-36.9 88.199-81 88.199-142.199 0-54.9-36-99-105.299-99-55.799 0-94.5 40.5-109.799 57.6l-66.6-88.199c61.2-53.1 117.899-78.3 203.399-78.3 111.599 0 216.898 63 216.898 192.599 0 108.899-69.299 158.398-145.799 227.698-32.399 29.7-96.299 82.8-104.399 119.699H561.1V824H148.903zM858.1 824H713.201c0-83.699 22.5-137.699 78.3-241.198l154.798-287.998H637.601v-106.2h444.597v103.499C942.698 534.202 858.1 724.101 858.1 824zM1328.798 836.6c-67.5 0-125.1-18-174.6-45.899l46.8-98.999c30.601 20.699 66.6 40.499 120.6 40.499 49.5 0 111.6-27.899 111.6-102.599 0-45.9-30.601-108.899-147.6-109.799l-98.999-.9 25.199-330.298h333.898v105.299h-228.599l-9 121.5 18 .9c173.698 9 243.898 105.299 243.898 200.698.001 121.499-96.299 219.598-241.197 219.598z"/></svg>