<?xml version="1.0" encoding="utf-8"?>
<!-- Generator: Adobe Illustrator 23.0.3, SVG Export Plug-In . SVG Version: 6.00 Build 0)  -->
<svg version="1.2" baseProfile="tiny" id="Calque_1"
	 xmlns="http://www.w3.org/2000/svg" xmlns:xlink="http://www.w3.org/1999/xlink" x="0px" y="0px" viewBox="0 0 120 77"
	 xml:space="preserve">
<g>
	<rect fill-rule="evenodd" fill="#FFBE00" width="120" height="38.5"/>
</g>
<g>
	<rect y="38.5" fill-rule="evenodd" fill="#FF5A00" width="120" height="38.5"/>
</g>
<g>
	<path d="M12.86,25.76H8.1V12.69h4.96c2.45,0,4.74,0.67,4.74,3.32c0,1.35-1.07,2.37-2.09,2.56v0.04c1.37,0.18,2.52,1.26,2.52,3.11
		C18.23,25.01,15.34,25.76,12.86,25.76z M12.41,14.87h-1.43v3h1.46c1.52,0,2.52-0.24,2.52-1.48C14.97,15.19,14.08,14.87,12.41,14.87
		z M12.54,19.95h-1.56v3.65h1.7c1.83,0,2.56-0.57,2.56-1.96C15.25,20.19,13.86,19.95,12.54,19.95z"/>
	<path d="M25.86,25.76v-1.22c-0.67,0.94-1.5,1.54-2.74,1.54c-2.13,0-3.02-1.48-3.02-3.41v-6.8h2.59v6.26c0,1,0.39,1.7,1.37,1.7
		c0.48,0,0.89-0.2,1.13-0.46c0.44-0.48,0.48-0.74,0.48-1.41v-6.09h2.59v9.89H25.86z"/>
	<path d="M32.89,26.08c-1.24,0-2.35-0.43-2.91-0.76l0.8-1.91c0.63,0.44,1.54,0.74,2.32,0.74c0.68,0,1.52-0.24,1.52-1.02
		c0-0.65-0.54-0.85-1.46-1.2l-0.82-0.32c-1.28-0.5-2.13-1.26-2.13-2.7c0-1.87,1.57-3.35,3.89-3.35c1.24,0,2.15,0.39,2.67,0.65
		l-0.8,1.91c-0.57-0.37-1.37-0.59-2-0.59c-1.06,0-1.37,0.54-1.37,0.98c0,0.52,0.48,0.81,1.17,1.06l0.87,0.32
		c1.41,0.52,2.41,1.28,2.41,2.93C37.04,24.73,35.48,26.08,32.89,26.08z"/>
	<path d="M46.93,21.26h-6.13c0,0.02,0,0.04,0,0.06c0,1.76,1.28,2.71,2.95,2.71c0.89,0,1.83-0.37,2.35-0.65l0.69,1.93
		c-0.76,0.35-2.07,0.78-3.52,0.78c-3.09,0-5.04-2.11-5.04-5.19c0-2.61,1.41-5.34,4.58-5.34c3.06,0,4.19,2.35,4.19,4.63
		C46.98,20.5,46.96,20.93,46.93,21.26z M42.68,17.37c-1.48,0-1.94,1.26-1.94,2.13h3.8C44.63,18.47,44,17.37,42.68,17.37z
		 M43.55,14.93h-2l2.07-2.87h2.96L43.55,14.93z"/>
	<path d="M52.99,26.12c-3.24,0-4.69-2.5-4.69-5.32c0-2.8,1.57-5.28,4.78-5.28c3.24,0,4.69,2.5,4.69,5.32
		C57.77,23.63,56.2,26.12,52.99,26.12z M53.09,17.56c-1.65,0-2.07,1.83-2.07,3.22c0,1.39,0.33,3.3,1.98,3.3s2.07-1.83,2.07-3.22
		C55.07,19.47,54.74,17.56,53.09,17.56z"/>
	<path d="M59.55,25.76V12.06h2.59v13.71H59.55z"/>
	<path d="M65.86,14.61c-0.89,0-1.46-0.57-1.46-1.37c0-0.8,0.57-1.37,1.46-1.37c0.89,0,1.44,0.57,1.44,1.37
		C67.3,14.04,66.75,14.61,65.86,14.61z M64.54,25.76v-9.89h2.59v9.89H64.54z"/>
	<path d="M77.63,21.26H71.5c0,0.02,0,0.04,0,0.06c0,1.76,1.28,2.71,2.95,2.71c0.89,0,1.83-0.37,2.35-0.65l0.69,1.93
		c-0.76,0.35-2.07,0.78-3.52,0.78c-3.09,0-5.04-2.11-5.04-5.19c0-2.61,1.41-5.34,4.58-5.34c3.06,0,4.19,2.35,4.19,4.63
		C77.69,20.5,77.67,20.93,77.63,21.26z M73.39,17.37c-1.48,0-1.94,1.26-1.94,2.13h3.8C75.33,18.47,74.71,17.37,73.39,17.37z"/>
	<path d="M85.5,25.76V19.5c0-1-0.35-1.69-1.48-1.69c-0.52,0-0.98,0.22-1.26,0.48c-0.5,0.48-0.54,0.72-0.54,1.39v6.08h-2.59v-9.89
		h2.41v1.41c0.7-1.06,1.63-1.72,2.98-1.72c2.2,0,3.07,1.48,3.07,3.41v6.8H85.5z"/>
</g>
<g>
	<path d="M12.86,64.26H8.1V51.19h4.96c2.45,0,4.74,0.67,4.74,3.32c0,1.35-1.07,2.37-2.09,2.56v0.04c1.37,0.18,2.52,1.26,2.52,3.11
		C18.23,63.51,15.34,64.26,12.86,64.26z M12.41,53.37h-1.43v3h1.46c1.52,0,2.52-0.24,2.52-1.48C14.97,53.69,14.08,53.37,12.41,53.37
		z M12.54,58.45h-1.56v3.65h1.7c1.83,0,2.56-0.57,2.56-1.96C15.25,58.69,13.86,58.45,12.54,58.45z"/>
	<path d="M25.86,64.26v-1.22c-0.67,0.94-1.5,1.54-2.74,1.54c-2.13,0-3.02-1.48-3.02-3.41v-6.8h2.59v6.26c0,1,0.39,1.7,1.37,1.7
		c0.48,0,0.89-0.2,1.13-0.46c0.44-0.48,0.48-0.74,0.48-1.41v-6.09h2.59v9.89H25.86z"/>
	<path d="M32.89,64.58c-1.24,0-2.35-0.43-2.91-0.76l0.8-1.91c0.63,0.44,1.54,0.74,2.32,0.74c0.68,0,1.52-0.24,1.52-1.02
		c0-0.65-0.54-0.85-1.46-1.2l-0.82-0.32c-1.28-0.5-2.13-1.26-2.13-2.7c0-1.87,1.57-3.35,3.89-3.35c1.24,0,2.15,0.39,2.67,0.65
		l-0.8,1.91c-0.57-0.37-1.37-0.59-2-0.59c-1.06,0-1.37,0.54-1.37,0.98c0,0.52,0.48,0.81,1.17,1.06l0.87,0.32
		c1.41,0.52,2.41,1.28,2.41,2.93C37.04,63.23,35.48,64.58,32.89,64.58z"/>
	<path d="M46.93,59.76h-6.13c0,0.02,0,0.04,0,0.06c0,1.76,1.28,2.71,2.95,2.71c0.89,0,1.83-0.37,2.35-0.65l0.69,1.93
		c-0.76,0.35-2.07,0.78-3.52,0.78c-3.09,0-5.04-2.11-5.04-5.19c0-2.61,1.41-5.34,4.58-5.34c3.06,0,4.19,2.35,4.19,4.63
		C46.98,59,46.96,59.43,46.93,59.76z M42.68,55.87c-1.48,0-1.94,1.26-1.94,2.13h3.8C44.63,56.97,44,55.87,42.68,55.87z M43.55,53.43
		h-2l2.07-2.87h2.96L43.55,53.43z"/>
	<path d="M52.99,64.62c-3.24,0-4.69-2.5-4.69-5.32c0-2.8,1.57-5.28,4.78-5.28c3.24,0,4.69,2.5,4.69,5.32
		C57.77,62.13,56.2,64.62,52.99,64.62z M53.09,56.06c-1.65,0-2.07,1.83-2.07,3.22c0,1.39,0.33,3.3,1.98,3.3s2.07-1.83,2.07-3.22
		C55.07,57.97,54.74,56.06,53.09,56.06z"/>
	<path d="M59.55,64.26V50.56h2.59v13.71H59.55z"/>
	<path d="M65.86,53.11c-0.89,0-1.46-0.57-1.46-1.37c0-0.8,0.57-1.37,1.46-1.37c0.89,0,1.44,0.57,1.44,1.37
		C67.3,52.54,66.75,53.11,65.86,53.11z M64.54,64.26v-9.89h2.59v9.89H64.54z"/>
	<path d="M77.63,59.76H71.5c0,0.02,0,0.04,0,0.06c0,1.76,1.28,2.71,2.95,2.71c0.89,0,1.83-0.37,2.35-0.65l0.69,1.93
		c-0.76,0.35-2.07,0.78-3.52,0.78c-3.09,0-5.04-2.11-5.04-5.19c0-2.61,1.41-5.34,4.58-5.34c3.06,0,4.19,2.35,4.19,4.63
		C77.69,59,77.67,59.43,77.63,59.76z M73.39,55.87c-1.48,0-1.94,1.26-1.94,2.13h3.8C75.33,56.97,74.71,55.87,73.39,55.87z"/>
	<path d="M85.5,64.26V58c0-1-0.35-1.69-1.48-1.69c-0.52,0-0.98,0.22-1.26,0.48c-0.5,0.48-0.54,0.72-0.54,1.39v6.08h-2.59v-9.89h2.41
		v1.41c0.7-1.06,1.63-1.72,2.98-1.72c2.2,0,3.07,1.48,3.07,3.41v6.8H85.5z"/>
</g>
<path d="M102.93,30.94v-19.7c-1.53,1.21-3.94,2.38-5.61,3.12l-1.7-3.83c2.63-1.1,5.78-2.77,8.27-4.65h4.37v25.06H102.93z"/>
<path d="M96.15,70.22v-3.3c0.64-2.91,3.51-5.57,6.85-8.48c1.67-1.45,3.48-3.26,3.48-5.68c0-2.16-1.42-3.97-4.15-3.97
	c-2.2,0-3.73,1.6-4.33,2.27l-2.63-3.48c2.41-2.09,4.65-3.09,8.02-3.09c4.4,0,8.55,2.56,8.55,7.67c0,4.29-2.73,6.32-5.75,9.05
	c-1.28,1.17-3.8,3.37-4.12,4.83h10.33v4.19H96.15z"/>
</svg>
