<svg xmlns="http://www.w3.org/2000/svg" height="1000" width="1718" viewBox="0 0 1804 1050"><path fill="#8d653a" d="M0 0h1718v1000H0z"/><g fill="#fff"><path d="M578.002 860h-161c0-93 25-153 87-268l172-320h-343V154h494v115c-155 269-249 480-249 591zM1094 874c-91 0-146-21-203-53l54-109c30 23 79 46 139 46 82 0 133-44 133-104 0-81-62-107-134-107h-73V430h74c69 0 112-34 112-88 0-45-34-84-108-84-65 0-108 31-131 51l-49-104c61-40 129-63 212-63 144 0 226 84 226 178 0 73-39 129-114 157v2c78 15 137 73 137 172 0 124-111 223-275 223z"/></g></svg>