<svg xmlns="http://www.w3.org/2000/svg" height="1000" width="1718" viewBox="0 0 1804 1050"><path fill="#ed1b2a" d="M0 0h1718v1000H0z"/><g fill="#fff"><path d="M148.903 824v-83.699c16.2-73.8 89.099-138.6 173.699-212.398 42.3-36.9 88.199-81 88.199-142.199 0-54.9-36-99-105.299-99-55.799 0-94.5 40.5-109.799 57.6l-66.6-88.199c61.2-53.1 117.899-78.3 203.399-78.3 111.599 0 216.898 63 216.898 192.599 0 108.899-69.299 158.398-145.799 227.698-32.399 29.7-96.299 82.8-104.399 119.699H561.1V824H148.903zM824.8 836.6c-67.5 0-125.1-18-174.6-45.899l46.8-98.999C727.601 712.4 763.6 732.2 817.6 732.2c49.5 0 111.599-27.899 111.599-102.599 0-45.9-30.601-108.899-147.599-109.799l-98.999-.9L707.8 188.604h333.898v105.299H813.1l-9 121.5 18 .9c173.698 9 243.898 105.299 243.898 200.698 0 121.5-96.3 219.599-241.198 219.599zM1360.297 838.4c-141.299 0-221.398-84.6-221.398-180.899 0-84.599 47.7-134.099 108.899-165.599-54.899-34.2-89.1-72.899-89.1-138.599 0-105.299 95.399-178.199 204.299-178.199 111.6 0 204.299 54.899 204.299 163.799 0 59.399-30.6 105.299-89.999 141.299 58.499 27.899 109.799 78.3 109.799 161.999 0 120.6-96.299 196.199-226.799 196.199zm-10.8-302.398c-41.399 16.199-82.799 57.6-82.799 107.1 0 52.199 34.199 101.699 95.399 101.699 60.299 0 93.599-42.3 93.599-92.699 0-57.6-52.199-89.1-106.199-116.1zm15.3-269.098c-49.499 0-80.999 30.6-80.999 74.7 0 52.199 52.199 80.099 92.699 97.199 33.3-15.3 69.3-52.2 69.3-91.799 0-44.101-28.8-80.1-81-80.1z"/></g></svg>