<svg xmlns="http://www.w3.org/2000/svg" height="1000" width="1718" viewBox="0 0 1804 1050"><path fill="#bb499c" d="M0 0h1718v1000H0z"/><g fill="#fff"><path d="M148.903 824v-83.699c16.2-73.8 89.099-138.6 173.699-212.398 42.3-36.9 88.199-81 88.199-142.199 0-54.9-36-99-105.299-99-55.799 0-94.5 40.5-109.799 57.6l-66.6-88.199c61.2-53.1 117.899-78.3 203.399-78.3 111.599 0 216.898 63 216.898 192.599 0 108.899-69.299 158.398-145.799 227.698-32.399 29.7-96.299 82.8-104.399 119.699H561.1V824H148.903zM871.6 838.4c-170.999 0-232.199-119.699-232.199-287.998 0-220.499 101.699-371.698 301.498-371.698 36 0 68.399 4.5 94.5 10.8l-19.8 107.999c-17.101-7.2-49.5-15.3-85.5-15.3-87.299.001-152.999 63.9-161.099 191.699 21.6-18.9 62.1-43.2 129.598-43.2 103.5 0 188.099 69.299 188.099 188.099 0 126.899-84.598 219.599-215.097 219.599zm-11.701-307.798c-38.7 0-70.199 15.301-82.799 35.1-7.2 10.801-7.2 35.101-7.2 54 0 60.3 34.2 118.8 97.2 118.8 61.199 0 92.699-51.3 92.699-106.199 0-59.401-38.7-101.701-99.9-101.701zM1156.898 824v-83.699c16.2-73.8 89.1-138.6 173.699-212.398 42.3-36.9 88.199-81 88.199-142.199 0-54.9-36-99-105.299-99-55.8 0-94.5 40.5-109.8 57.6l-66.6-88.199c61.2-53.1 117.899-78.3 203.398-78.3 111.6 0 216.898 63 216.898 192.599 0 108.899-69.299 158.398-145.799 227.698-32.399 29.7-96.299 82.8-104.399 119.699h261.898V824h-412.195z"/></g></svg>