<svg xmlns="http://www.w3.org/2000/svg" height="1000" width="1718" viewBox="0 0 1804 1050"><path fill="#008b5a" d="M0 0h1718v1000H0z"/><g fill="#fff"><path d="M314.502 836.6c-81.899 0-131.399-18.899-182.699-47.699l48.6-98.1c27 20.7 71.1 41.399 125.099 41.399 73.799 0 119.7-39.6 119.7-93.599 0-72.9-55.8-96.3-120.6-96.3h-65.7V437.002h66.6c62.1 0 100.799-30.6 100.799-79.199 0-40.5-30.6-75.6-97.199-75.6-58.5 0-97.199 27.9-117.899 45.9l-44.1-93.6c54.9-36 116.099-56.7 190.799-56.7 129.599 0 203.398 75.6 203.398 160.199 0 65.699-35.1 116.099-102.6 141.299v1.8C508.9 494.601 562 546.8 562 635.9c0 111.601-99.899 200.7-247.498 200.7zM858.1 824H713.201c0-83.699 22.5-137.699 78.3-241.198l154.798-287.998H637.601v-106.2h444.597v103.499C942.698 534.202 858.1 724.101 858.1 824zM1360.297 838.4c-141.299 0-221.398-84.6-221.398-180.899 0-84.599 47.7-134.099 108.899-165.599-54.899-34.2-89.1-72.899-89.1-138.599 0-105.299 95.399-178.199 204.299-178.199 111.6 0 204.299 54.899 204.299 163.799 0 59.399-30.6 105.299-89.999 141.299 58.499 27.899 109.799 78.3 109.799 161.999 0 120.6-96.299 196.199-226.799 196.199zm-10.8-302.398c-41.399 16.199-82.799 57.6-82.799 107.1 0 52.199 34.199 101.699 95.399 101.699 60.299 0 93.599-42.3 93.599-92.699 0-57.6-52.199-89.1-106.199-116.1zm15.3-269.098c-49.499 0-80.999 30.6-80.999 74.7 0 52.199 52.199 80.099 92.699 97.199 33.3-15.3 69.3-52.2 69.3-91.799 0-44.101-28.8-80.1-81-80.1z"/></g></svg>