<svg xmlns="http://www.w3.org/2000/svg" width="120" height="77" viewBox="0 0 126 81"><g fill-rule="evenodd" clip-rule="evenodd"><path fill="#ff5a00" d="M0 0h120v77H0z"/><path fill="#0a0082" d="M0 0h120v68.75H0z"/></g><path d="M34.341 38.708V8.517h-6.154v20.402h-.085c-.089-.373-.371-.975-.845-1.807-.475-.832-1.12-1.841-1.937-3.026L14.623 8.517h-6.11v30.191h6.196V19.082h.086c.124.36.399.954.823 1.78.424.826 1.02 1.772 1.786 2.838l10.868 15.008h6.069z" fill-rule="evenodd" clip-rule="evenodd" fill="#fff"/><g fill="#fff"><path d="M47.2 61.902v-5.669c1.097-4.999 6.034-9.571 11.765-14.569 2.865-2.5 5.974-5.608 5.974-9.753 0-3.719-2.438-6.828-7.132-6.828-3.779 0-6.4 2.743-7.438 3.901l-4.511-5.974c4.146-3.597 7.985-5.304 13.777-5.304 7.559 0 14.69 4.389 14.69 13.167 0 7.376-4.693 10.85-9.875 15.544-2.194 2.012-6.522 5.791-7.071 8.29h17.739V61.9H47.2zM105.894 52.941v8.961H97.36v-8.961H77.975v-7.986l16.702-26.09h11.217v27.371h5.06v6.705h-5.06zm-8.535-26.517h-.122c-.183.731-1.402 3.353-3.109 6.035l-8.777 13.777H97.36V26.424z"/></g></svg>