<svg width="24" height="24" viewBox="0 0 24 24" fill="none" xmlns="http://www.w3.org/2000/svg">
<rect x="0.5" y="0.5" width="23" height="23" rx="1.5" stroke="black"/>
<rect x="0.5" y="0.5" width="23" height="6" rx="1.5" stroke="black"/>
<path d="M5.90341 19V18.233L8.78409 15.0795C9.12216 14.7102 9.40057 14.3892 9.61932 14.1165C9.83807 13.8409 10 13.5824 10.1051 13.3409C10.2131 13.0966 10.267 12.8409 10.267 12.5739C10.267 12.267 10.1932 12.0014 10.0455 11.777C9.90057 11.5526 9.7017 11.3793 9.44886 11.2571C9.19602 11.1349 8.91193 11.0739 8.59659 11.0739C8.26136 11.0739 7.96875 11.1435 7.71875 11.2827C7.47159 11.419 7.27983 11.6108 7.14347 11.858C7.00994 12.1051 6.94318 12.3949 6.94318 12.7273H5.9375C5.9375 12.2159 6.0554 11.767 6.29119 11.3807C6.52699 10.9943 6.84801 10.6932 7.25426 10.4773C7.66335 10.2614 8.12216 10.1534 8.63068 10.1534C9.14205 10.1534 9.59517 10.2614 9.99006 10.4773C10.3849 10.6932 10.6946 10.9844 10.919 11.3509C11.1435 11.7173 11.2557 12.125 11.2557 12.5739C11.2557 12.8949 11.1974 13.2088 11.081 13.5156C10.9673 13.8196 10.7685 14.1591 10.4844 14.5341C10.2031 14.9062 9.8125 15.3608 9.3125 15.8977L7.35227 17.9943V18.0625H11.4091V19H5.90341ZM12.777 17.2102V16.3409L16.6122 10.2727H17.2429V11.6193H16.8168L13.919 16.2045V16.2727H19.0838V17.2102H12.777ZM16.8849 19V16.946V16.5412V10.2727H17.8906V19H16.8849Z" fill="black"/>
</svg>
