<svg width="24" height="22" viewBox="0 0 24 22" fill="none" xmlns="http://www.w3.org/2000/svg">
<path d="M7.06435 14.6319L7.06411 14.6317L7.05798 14.6419L5.42077 17.3706C4.83318 18.3499 3.50066 18.555 2.64578 17.7978C1.99185 17.2185 1.84014 16.2571 2.2839 15.5046L4.07467 12.4681C6.00818 9.56867 8.22318 6.86716 10.6875 4.40288L10.8474 4.2429L13.3997 2.26742C14.1362 1.69735 15.1711 1.72049 15.8814 2.32289C16.8155 3.1151 16.8087 4.55836 15.8672 5.34175L10.8911 9.48231C10.3047 9.97018 9.79207 10.5403 9.36898 11.1749L7.06435 14.6319Z" stroke="black" stroke-width="0.5"/>
<path d="M13.0044 16.6599L13.0042 16.6598L12.998 16.67L11.3608 19.3987C10.7732 20.378 9.44073 20.5831 8.58584 19.8258C7.93192 19.2466 7.7802 18.2852 8.22397 17.5327L10.0147 14.4962C11.9482 11.5967 14.1632 8.89524 16.6275 6.43096L16.7875 6.27098L19.3397 4.2955C20.0762 3.72543 21.1112 3.74856 21.8215 4.35097C22.7556 5.14317 22.7488 6.58644 21.8073 7.36983L16.8311 11.5104C16.2448 11.9983 15.7321 12.5684 15.309 13.203L13.0044 16.6599Z" stroke="black" stroke-width="0.5"/>
</svg>
