<svg width="19" height="23" viewBox="0 0 19 23" fill="none" xmlns="http://www.w3.org/2000/svg">
<mask id="path-1-inside-1_33_16" fill="white">
<path d="M0 4.53845H18.4615V18C18.4615 20.7614 16.223 23 13.4615 23H5C2.23857 23 0 20.7614 0 18V4.53845Z"/>
</mask>
<path d="M0 4.53845H18.4615H0ZM19.4615 18C19.4615 21.3137 16.7752 24 13.4615 24H5C1.68629 24 -1 21.3137 -1 18H1C1 20.2091 2.79086 22 5 22H13.4615C15.6707 22 17.4615 20.2091 17.4615 18H19.4615ZM5 24C1.68629 24 -1 21.3137 -1 18V4.53845H1V18C1 20.2091 2.79086 22 5 22V24ZM19.4615 4.53845V18C19.4615 21.3137 16.7752 24 13.4615 24V22C15.6707 22 17.4615 20.2091 17.4615 18V4.53845H19.4615Z" fill="black" mask="url(#path-1-inside-1_33_16)"/>
<rect x="18.2308" y="1.0769" width="0.461538" height="18" rx="0.230769" transform="rotate(90 18.2308 1.0769)" stroke="black" stroke-width="0.461538"/>
<rect x="7.11538" y="4.65384" width="0.230769" height="13.6154" rx="0.115385" stroke="black" stroke-width="0.230769"/>
<rect x="11.2692" y="4.65384" width="0.230769" height="13.6154" rx="0.115385" stroke="black" stroke-width="0.230769"/>
<path d="M8 1C8 0.447716 8.44772 0 9 0H9.925C10.4773 0 10.925 0.447715 10.925 1V1.14286H8V1Z" fill="black"/>
</svg>
