<svg width="26" height="26" viewBox="0 0 26 26" fill="none" xmlns="http://www.w3.org/2000/svg">
<path d="M19.6667 2.77778L20.7373 1.70711C21.1279 1.31658 21.761 1.31658 22.1516 1.70711L24.2929 3.84845C24.6834 4.23897 24.6834 4.87214 24.2929 5.26266L23.2222 6.33333M19.6667 2.77778L3.80284 18.6416C3.71289 18.7316 3.64092 18.8379 3.5908 18.9548L1.9848 22.7021C1.6292 23.5319 2.46814 24.3708 3.29786 24.0152L7.04521 22.4092C7.16214 22.3591 7.26844 22.2871 7.3584 22.1972L23.2222 6.33333M19.6667 2.77778L23.2222 6.33333" stroke="#005DFF"/>
<path d="M3.66667 18.7778L1 25L7.22222 22.3333" stroke="#005DFF"/>
</svg>
