<svg width="23" height="24" viewBox="0 0 23 24" fill="none" xmlns="http://www.w3.org/2000/svg">
<path fill-rule="evenodd" clip-rule="evenodd" d="M0.0195619 10.3843C0.00658092 10.6353 0 10.8882 0 11.1428C0 18.2437 5.11726 24 11.4297 24C17.7422 24 22.8594 18.2437 22.8594 11.1428C22.8594 10.8882 22.8528 10.6353 22.8399 10.3843H21.8386C21.8524 10.6349 21.8594 10.8878 21.8594 11.1428C21.8594 17.8053 17.0825 23 11.4297 23C5.77693 23 1 17.8053 1 11.1428C1 10.8878 1.007 10.6349 1.02079 10.3843H0.0195619Z" fill="black"/>
<path d="M0.952515 10.8854H2.51111H22.7729" stroke="black"/>
<path d="M1.03906 11.1429L10.6983 0.78431C11.0937 0.360296 11.7657 0.360295 12.1611 0.784309L21.8204 11.1429" stroke="black" stroke-width="0.2"/>
</svg>
