<svg width="25" height="25" viewBox="0 0 25 25" fill="none" xmlns="http://www.w3.org/2000/svg">
<path d="M13.0018 6.7786V24.1144M13.0018 6.7786H11.0756C10.5437 6.7786 10.1125 6.3474 10.1125 5.8155V1M13.0018 6.7786H14.928C15.4599 6.7786 15.8911 6.3474 15.8911 5.8155V1M13.0018 1V5.8155M13.0018 5.8155C13.0018 6.3474 12.5707 6.7786 12.0387 6.7786M13.0018 5.8155C13.0018 6.58598 13.6439 6.7786 13.9649 6.7786" stroke="black"/>
<path d="M2.88928 6.29706V24.1144" stroke="black"/>
<rect x="5.27856" y="1.5" width="4.77859" height="4.77859" rx="1.5" transform="rotate(90 5.27856 1.5)" fill="black" stroke="black"/>
<path d="M22.1513 13V2.29399C22.1513 1.29072 23.6359 1.17889 23.7908 2.17049L23.9972 10.3902C24.0373 10.6469 23.6337 11.7475 23.4756 11.9553L22.1513 13Z" fill="black"/>
<path d="M22.1513 2.10089V24.1144M22.1513 13L23.4756 11.9553C23.6337 11.7475 24.0373 10.6469 23.9972 10.3902L23.7908 2.17049C23.6359 1.17889 22.1513 1.29072 22.1513 2.29399" stroke="black"/>
</svg>
