<svg width="24" height="24" viewBox="0 0 24 24" fill="none" xmlns="http://www.w3.org/2000/svg">
<g clip-path="url(#clip0_422_50)">
<path d="M24 12.0608C24 5.39999 18.4203 -0.000305176 12.0303 -0.000305176C5.40044 -0.000305176 0 5.39999 0 12.0608C0 18.6606 5.40044 24 12.0303 24C18.6602 24 24 18.6905 24 12.0608ZM22.3501 12.0608C22.3501 17.7007 17.7009 22.4105 12.0303 22.4105C6.32996 22.4105 1.64977 17.7603 1.64977 12.0608C1.64977 6.32929 6.32995 1.59052 12.0303 1.59052C17.7009 1.59052 22.3501 6.36064 22.3501 12.0608ZM17.9703 17.3705V6.89999C17.9703 6.29984 17.6407 5.66981 16.6507 5.66981C15.9007 5.66981 15.6004 5.99969 15.2701 6.6599L12.0303 13.4105H11.9995L8.73098 6.6599C8.4003 5.99969 8.0997 5.66981 7.34993 5.66981C6.35963 5.66981 6.03003 6.29984 6.03003 6.89999V17.3705C6.03003 17.9404 6.48032 18.2708 7.02012 18.2708C7.50095 18.2708 8.03979 17.9404 8.03979 17.3705V9.5704H8.0702L11.0403 15.6302C11.2499 16.05 11.5198 16.2901 11.9995 16.2901C12.48 16.2901 12.7499 16.05 12.9597 15.6302L15.9308 9.5704H15.9605V17.3705C15.9605 17.9404 16.4997 18.2708 16.9807 18.2708C17.5198 18.2708 17.9703 17.9404 17.9703 17.3705Z" fill="#222222"/>
</g>
<defs>
<clipPath id="clip0_422_50">
<rect width="24" height="24" fill="white"/>
</clipPath>
</defs>
</svg>
