<svg width="19" height="24" viewBox="0 0 19 24" fill="none" xmlns="http://www.w3.org/2000/svg">
<path d="M18.3082 9.40408C18.3082 10.5731 17.7713 12.0431 16.9001 13.6359C16.0367 15.2143 14.8794 16.8525 13.7126 18.3413C12.5472 19.8282 11.3806 21.1557 10.5047 22.1121C10.067 22.59 9.70254 22.9745 9.44787 23.2392C9.43289 23.2547 9.41829 23.2699 9.40408 23.2846C9.38987 23.2699 9.37527 23.2547 9.36029 23.2392C9.10562 22.9745 8.74112 22.59 8.30342 22.1121C7.42751 21.1557 6.26092 19.8282 5.09558 18.3413C3.92877 16.8525 2.77142 15.2143 1.90805 13.6359C1.03686 12.0431 0.5 10.5731 0.5 9.40408C0.5 4.48649 4.48649 0.5 9.40408 0.5C14.3217 0.5 18.3082 4.48649 18.3082 9.40408Z" stroke="black"/>
<circle cx="9.40382" cy="9.40407" r="3.84035" stroke="black"/>
</svg>
