<svg width="24" height="24" viewBox="0 0 24 24" fill="none" xmlns="http://www.w3.org/2000/svg">
<g clip-path="url(#clip0_422_57)">
<path d="M18.4799 24H5.52001C2.47624 24 0 21.5238 0 18.48V5.52C0 2.47624 2.47624 0 5.52001 0H18.4799C21.5238 0 24 2.47624 24 5.52V18.48C24 21.5238 21.5238 24 18.4799 24ZM5.52001 1.55999C3.33645 1.55999 1.56005 3.33645 1.56005 5.52V18.48C1.56005 20.6635 3.33645 22.4399 5.52001 22.4399H18.4799C20.6635 22.4399 22.4399 20.6635 22.4399 18.48V5.52C22.4399 3.33645 20.6635 1.55999 18.4799 1.55999H5.52001Z" fill="#222222"/>
<path d="M7.31974 10.3201C7.31974 11.3401 6.38975 11.5802 5.81978 11.5802H5.33971V9.15011H5.90979C6.65969 9.15011 7.31974 9.48017 7.31974 10.3201ZM18.9299 10.3201C18.9299 11.3401 17.9998 11.5802 17.4298 11.5802H16.9499V9.15011H17.5199C18.2698 9.15011 18.9299 9.48017 18.9299 10.3201ZM8.99969 10.1401C8.99969 8.52014 7.7998 7.77014 6.62986 7.77014H4.37987C3.95984 7.77014 3.71973 8.1001 3.71973 8.46017V15.51C3.71973 15.93 4.13983 16.1401 4.52981 16.1401C4.9798 16.1401 5.33971 15.93 5.33971 15.51V12.78H6.02968L7.37977 15.8101C7.49982 16.05 7.70979 16.1401 7.94984 16.1401C8.42987 16.1401 9.11974 15.6899 8.8499 15.1499L7.55985 12.4501C8.3398 12.0602 8.99969 11.3701 8.99969 10.1401ZM14.5197 15.3602C14.5197 15.0001 14.2797 14.6102 13.8598 14.6102H11.5798V12.5401H13.4698C13.8897 12.5401 14.1298 12.18 14.1298 11.8501C14.1298 11.4901 13.8897 11.1601 13.4698 11.1601H11.5798V9.2701H13.6797C14.0998 9.2701 14.3398 8.85016 14.3398 8.52014C14.3398 8.16013 14.0998 7.77014 13.6797 7.77014H10.6199C10.1998 7.77014 9.95988 8.1001 9.95988 8.46017V15.4801C9.95988 15.9 10.3798 16.11 10.7698 16.11H13.8598C14.2797 16.11 14.5197 15.6899 14.5197 15.3602ZM20.6099 10.1401C20.6099 8.52014 19.4097 7.77014 18.2399 7.77014H15.9897C15.5699 7.77014 15.3298 8.1001 15.3298 8.46017V15.51C15.3298 15.93 15.7499 16.1401 16.1398 16.1401C16.5898 16.1401 16.9499 15.93 16.9499 15.51V12.78H17.6399L18.9898 15.8101C19.1098 16.05 19.3198 16.1401 19.5598 16.1401C20.0399 16.1401 20.7299 15.6899 20.4599 15.1499L19.1697 12.4501C19.9498 12.0602 20.6099 11.3701 20.6099 10.1401Z" fill="#222222"/>
</g>
<defs>
<clipPath id="clip0_422_57">
<rect width="24" height="24" fill="white"/>
</clipPath>
</defs>
</svg>
