<svg width="26" height="26" viewBox="0 0 26 26" fill="none" xmlns="http://www.w3.org/2000/svg">
<path fill-rule="evenodd" clip-rule="evenodd" d="M14.1802 1.5H11.8198C11.5815 1.5 11.3763 1.66823 11.3295 1.90194L11.1099 3H11.104L10.9679 3.71783C10.9 3.73263 10.8323 3.74816 10.765 3.76441C9.77269 4.00368 8.84114 4.39872 7.99763 4.92218C7.96717 4.94109 7.93683 4.96016 7.9066 4.97939L7.41427 4.64204C7.40789 4.63678 7.40121 4.63181 7.39424 4.62717L7.33202 4.58568L7.10197 4.42805L7.09942 4.43061L6.2867 3.8888C6.08839 3.75659 5.82433 3.78274 5.6558 3.95127L3.98675 5.62032C3.81821 5.78886 3.79207 6.05292 3.92428 6.25123L4.46609 7.06394L4.46022 7.06981L5.00557 7.86569C4.98461 7.89826 4.96385 7.93096 4.94328 7.96379C4.40932 8.8162 4.00688 9.7594 3.76441 10.765C3.74816 10.8323 3.73263 10.9 3.71783 10.9679L3 11.104V11.1099L1.90194 11.3295C1.66823 11.3763 1.5 11.5815 1.5 11.8198V14.1802C1.5 14.4185 1.66823 14.6237 1.90194 14.6705L3 14.8901V14.896L3.71783 15.0321C3.73263 15.1 3.74816 15.1677 3.76441 15.235C4.01387 16.2695 4.43263 17.2381 4.98973 18.1096C5.01069 18.1424 5.03184 18.175 5.05318 18.2075L4.7447 18.6551C4.7242 18.6711 4.70611 18.6904 4.69131 18.7126L3.95295 19.8201C3.82074 20.0184 3.84689 20.2825 4.01542 20.451L5.68447 22.1201C5.853 22.2886 6.11706 22.3147 6.31538 22.1825L7.01567 21.7157L7.02471 21.7247L7.97961 21.0666L8.01646 21.0895C8.97947 21.684 10.0566 22.1114 11.2075 22.3311C11.3017 22.3491 11.3964 22.3657 11.4916 22.3809L11.609 23H11.6156L11.8381 24.1123C11.8848 24.3461 12.09 24.5143 12.3283 24.5143H14.6887C14.9271 24.5143 15.1323 24.3461 15.179 24.1123L15.4401 22.8071C15.4425 22.7948 15.444 22.7824 15.4446 22.7701L15.5621 22.1505L15.6097 22.1371C16.6539 21.8394 17.6246 21.3676 18.4886 20.755L19.2835 21.2965L19.2867 21.2934L20.2133 21.9112C20.4116 22.0434 20.6757 22.0172 20.8442 21.8487L22.5133 20.1797C22.6818 20.0111 22.7079 19.7471 22.5757 19.5488L21.958 18.6221L21.9649 18.6152L21.2957 17.6329C21.7117 16.8895 22.0307 16.0845 22.2356 15.235C22.2518 15.1677 22.2674 15.1 22.2822 15.0321L23 14.896V14.8901L24.0981 14.6705C24.3318 14.6237 24.5 14.4185 24.5 14.1802V11.8198C24.5 11.5815 24.3318 11.3763 24.0981 11.3295L23 11.1099V11.104L22.2822 10.9679C22.2674 10.9 22.2518 10.8323 22.2356 10.765C22.0008 9.79115 21.6159 8.87582 21.1069 8.04479C20.3473 6.80476 19.3112 5.75246 18.0844 4.97369C17.2194 4.42459 16.2596 4.01147 15.235 3.76441C15.1677 3.74816 15.1 3.73264 15.0321 3.71784L14.896 3H14.8901L14.6705 1.90194C14.6237 1.66823 14.4185 1.5 14.1802 1.5ZM10.5782 3.10914C10.5656 3.17221 10.5613 3.23584 10.565 3.29856C9.60563 3.53858 8.70121 3.91717 7.8742 4.41182C7.82098 4.3336 7.75261 4.26515 7.67159 4.21114L6.56405 3.47278C6.16743 3.20836 5.63931 3.26066 5.30224 3.59772L3.63319 5.26677C3.29613 5.60383 3.24384 6.13195 3.50825 6.52858L4.24661 7.63612C4.29832 7.71368 4.36325 7.77964 4.43732 7.83182C3.93016 8.67027 3.54269 9.58921 3.29856 10.565C3.23584 10.5613 3.17221 10.5656 3.10914 10.5782L1.80388 10.8392C1.33646 10.9327 1 11.3431 1 11.8198V14.1802C1 14.6569 1.33646 15.0673 1.80388 15.1608L3.10914 15.4218C3.17221 15.4344 3.23584 15.4387 3.29856 15.435C3.54892 16.4357 3.95006 17.3767 4.47643 18.2323C4.39802 18.2856 4.32941 18.354 4.27529 18.4352L3.53693 19.5428C3.27251 19.9394 3.3248 20.4675 3.66187 20.8046L5.33092 22.4736C5.66798 22.8107 6.1961 22.863 6.59273 22.5986L7.70027 21.8602C7.79463 21.7973 7.87183 21.7148 7.92793 21.6201C8.88586 22.1849 9.94618 22.5947 11.0743 22.8148C11.0766 22.8449 11.0807 22.8751 11.0867 22.9051L11.3478 24.2104C11.4413 24.6778 11.8517 25.0143 12.3283 25.0143H14.6887C15.1654 25.0143 15.5758 24.6778 15.6693 24.2104L15.9304 22.9051C15.9531 22.7914 15.9487 22.6758 15.9197 22.5671C16.8732 22.2764 17.7664 21.8471 18.5756 21.3026C18.6327 21.4167 18.719 21.5159 18.8284 21.5888L19.936 22.3272C20.3326 22.5916 20.8607 22.5393 21.1978 22.2023L22.8668 20.5332C23.2039 20.1962 23.2562 19.668 22.9918 19.2714L22.2534 18.1639C22.1374 17.9899 21.9548 17.8743 21.7519 17.8416C22.1669 17.0931 22.4886 16.2856 22.7014 15.435C22.7642 15.4387 22.8278 15.4344 22.8909 15.4218L24.1961 15.1608C24.6635 15.0673 25 14.6569 25 14.1802V11.8198C25 11.3431 24.6635 10.9327 24.1961 10.8392L22.8909 10.5782C22.8278 10.5656 22.7642 10.5613 22.7014 10.565C22.4672 9.62866 22.1009 8.74467 21.6236 7.93391C21.7079 7.8794 21.7815 7.80765 21.8388 7.72164L22.5772 6.6141C22.8416 6.21748 22.7893 5.68936 22.4523 5.35229L20.7832 3.68324C20.4462 3.34618 19.918 3.29388 19.5214 3.5583L18.4139 4.29666C18.3411 4.34518 18.2785 4.40534 18.228 4.47377C17.3735 3.94871 16.434 3.5485 15.435 3.29856C15.4387 3.23584 15.4344 3.17221 15.4218 3.10914L15.1608 1.80388C15.0673 1.33646 14.6569 1 14.1802 1H11.8198C11.3431 1 10.9327 1.33646 10.8392 1.80388L10.5782 3.10914ZM18.5 13C18.5 16.0376 16.0376 18.5 13 18.5C9.96243 18.5 7.5 16.0376 7.5 13C7.5 9.96243 9.96243 7.5 13 7.5C16.0376 7.5 18.5 9.96243 18.5 13ZM19 13C19 16.3137 16.3137 19 13 19C9.68629 19 7 16.3137 7 13C7 9.68629 9.68629 7 13 7C16.3137 7 19 9.68629 19 13Z" fill="white"/>
<path d="M11.3295 1.90194L11.5747 1.95097L11.5747 1.95097L11.3295 1.90194ZM11.1099 3V3.25H11.3149L11.355 3.04903L11.1099 3ZM11.104 3V2.75H10.897L10.8584 2.95343L11.104 3ZM10.9679 3.71783L11.0211 3.9621L11.1827 3.92689L11.2135 3.7644L10.9679 3.71783ZM10.765 3.76441L10.8236 4.00744L10.8236 4.00744L10.765 3.76441ZM7.99763 4.92218L7.86581 4.70976L7.86581 4.70976L7.99763 4.92218ZM7.9066 4.97939L7.76529 5.18562L7.90151 5.27896L8.04082 5.19031L7.9066 4.97939ZM7.41427 4.64204L7.25517 4.83488L7.26376 4.84197L7.27296 4.84827L7.41427 4.64204ZM7.39424 4.62717L7.53292 4.41916L7.53292 4.41915L7.39424 4.62717ZM7.33202 4.58568L7.19069 4.79193L7.19334 4.79369L7.33202 4.58568ZM7.10197 4.42805L7.24328 4.22182L7.07202 4.10447L6.92521 4.25127L7.10197 4.42805ZM7.09942 4.43061L6.96074 4.63863L7.13126 4.75231L7.27618 4.6074L7.09942 4.43061ZM6.2867 3.8888L6.14802 4.09681L6.14802 4.09681L6.2867 3.8888ZM5.6558 3.95127L5.83257 4.12805L5.83257 4.12805L5.6558 3.95127ZM3.98675 5.62032L3.80997 5.44355L3.80997 5.44355L3.98675 5.62032ZM3.92428 6.25123L3.71626 6.3899L3.71626 6.3899L3.92428 6.25123ZM4.46609 7.06394L4.64286 7.24072L4.78779 7.0958L4.6741 6.92527L4.46609 7.06394ZM4.46022 7.06981L4.28345 6.89303L4.13663 7.03984L4.25399 7.21112L4.46022 7.06981ZM5.00557 7.86569L5.2158 8.00099L5.30566 7.86136L5.2118 7.72438L5.00557 7.86569ZM4.94328 7.96379L4.73142 7.83108L4.73142 7.83108L4.94328 7.96379ZM3.76441 10.765L4.00744 10.8236L4.00744 10.8236L3.76441 10.765ZM3.71783 10.9679L3.76441 11.2135L3.92689 11.1827L3.9621 11.0211L3.71783 10.9679ZM3 11.104L2.95343 10.8584L2.75 10.8969V11.104H3ZM3 11.1099L3.04903 11.355L3.25 11.3149V11.1099H3ZM1.90194 11.3295L1.95097 11.5747L1.95097 11.5747L1.90194 11.3295ZM1.90194 14.6705L1.95097 14.4253L1.95097 14.4253L1.90194 14.6705ZM3 14.8901H3.25V14.6851L3.04903 14.645L3 14.8901ZM3 14.896H2.75V15.103L2.95343 15.1416L3 14.896ZM3.71783 15.0321L3.9621 14.9789L3.92689 14.8173L3.7644 14.7865L3.71783 15.0321ZM3.76441 15.235L4.00744 15.1764L4.00744 15.1764L3.76441 15.235ZM4.98973 18.1096L4.77909 18.2443L4.77909 18.2443L4.98973 18.1096ZM5.05318 18.2075L5.25903 18.3494L5.35448 18.2109L5.26215 18.0703L5.05318 18.2075ZM4.7447 18.6551L4.89817 18.8525L4.92864 18.8288L4.95055 18.797L4.7447 18.6551ZM4.69131 18.7126L4.4833 18.5739L4.4833 18.5739L4.69131 18.7126ZM3.95295 19.8201L4.16096 19.9588L4.16096 19.9588L3.95295 19.8201ZM4.01542 20.451L4.1922 20.2742L4.1922 20.2742L4.01542 20.451ZM5.68447 22.1201L5.86125 21.9433L5.86125 21.9433L5.68447 22.1201ZM6.31538 22.1825L6.45405 22.3906L6.45405 22.3905L6.31538 22.1825ZM7.01567 21.7157L7.19244 21.5389L7.04751 21.394L6.87699 21.5077L7.01567 21.7157ZM7.02471 21.7247L6.84793 21.9015L6.99515 22.0487L7.16657 21.9306L7.02471 21.7247ZM7.97961 21.0666L8.11143 20.8542L7.97244 20.7679L7.83775 20.8608L7.97961 21.0666ZM8.01646 21.0895L7.88464 21.3019L7.88513 21.3022L8.01646 21.0895ZM11.2075 22.3311L11.2544 22.0856L11.2544 22.0856L11.2075 22.3311ZM11.4916 22.3809L11.7372 22.3343L11.7045 22.1617L11.531 22.134L11.4916 22.3809ZM11.609 23L11.3634 23.0466L11.4019 23.25H11.609V23ZM11.6156 23L11.8607 22.951L11.8205 22.75H11.6156V23ZM11.8381 24.1123L11.5929 24.1614L11.5929 24.1614L11.8381 24.1123ZM15.179 24.1123L14.9339 24.0633L14.9339 24.0633L15.179 24.1123ZM15.4401 22.8071L15.1949 22.7581L15.1949 22.7581L15.4401 22.8071ZM15.4446 22.7701L15.199 22.7235L15.1956 22.741L15.1948 22.7589L15.4446 22.7701ZM15.5621 22.1505L15.4942 21.9099L15.3453 21.9519L15.3164 22.1039L15.5621 22.1505ZM15.6097 22.1371L15.6776 22.3777L15.6782 22.3775L15.6097 22.1371ZM18.4886 20.755L18.6293 20.5484L18.4857 20.4506L18.344 20.5511L18.4886 20.755ZM19.2835 21.2965L19.1428 21.5032L19.3139 21.6197L19.4603 21.4733L19.2835 21.2965ZM19.2867 21.2934L19.4253 21.0854L19.2548 20.9717L19.1099 21.1166L19.2867 21.2934ZM20.2133 21.9112L20.0746 22.1192L20.0746 22.1192L20.2133 21.9112ZM20.8442 21.8487L20.6674 21.6719L20.6674 21.6719L20.8442 21.8487ZM22.5133 20.1797L22.3365 20.0029L22.3365 20.0029L22.5133 20.1797ZM22.5757 19.5488L22.7837 19.4101L22.7837 19.4101L22.5757 19.5488ZM21.958 18.6221L21.7812 18.4453L21.6363 18.5903L21.7499 18.7608L21.958 18.6221ZM21.9649 18.6152L22.1417 18.792L22.2881 18.6456L22.1715 18.4744L21.9649 18.6152ZM21.2957 17.6329L21.0775 17.5108L21.002 17.6458L21.0891 17.7737L21.2957 17.6329ZM22.2356 15.235L21.9926 15.1764L21.9926 15.1764L22.2356 15.235ZM22.2822 15.0321L22.2356 14.7865L22.0731 14.8173L22.0379 14.9789L22.2822 15.0321ZM23 14.896L23.0466 15.1416L23.25 15.1031V14.896H23ZM23 14.8901L22.951 14.645L22.75 14.6851V14.8901H23ZM24.0981 14.6705L24.1471 14.9156L24.1471 14.9156L24.0981 14.6705ZM24.0981 11.3295L24.049 11.5747L24.049 11.5747L24.0981 11.3295ZM23 11.1099H22.75V11.3149L22.951 11.355L23 11.1099ZM23 11.104H23.25V10.897L23.0466 10.8584L23 11.104ZM22.2822 10.9679L22.0379 11.0211L22.0731 11.1827L22.2356 11.2135L22.2822 10.9679ZM22.2356 10.765L22.4786 10.7064L22.4786 10.7064L22.2356 10.765ZM21.1069 8.04479L20.8937 8.17538L20.8937 8.17538L21.1069 8.04479ZM18.0844 4.97369L17.9504 5.18475L17.9504 5.18475L18.0844 4.97369ZM15.235 3.76441L15.2936 3.52137L15.2936 3.52137L15.235 3.76441ZM15.0321 3.71784L14.7865 3.76441L14.8173 3.92689L14.9789 3.9621L15.0321 3.71784ZM14.896 3L15.1416 2.95343L15.1031 2.75H14.896V3ZM14.8901 3L14.645 3.04903L14.6851 3.25H14.8901V3ZM14.6705 1.90194L14.4253 1.95097L14.4253 1.95097L14.6705 1.90194ZM10.565 3.29856L10.6256 3.54108L10.8266 3.4908L10.8145 3.28399L10.565 3.29856ZM10.5782 3.10914L10.8233 3.15817L10.8233 3.15817L10.5782 3.10914ZM7.8742 4.41182L7.66751 4.55246L7.80016 4.74742L8.00253 4.62637L7.8742 4.41182ZM7.67159 4.21114L7.53292 4.41915L7.53292 4.41915L7.67159 4.21114ZM6.56405 3.47278L6.70272 3.26476L6.70272 3.26476L6.56405 3.47278ZM3.63319 5.26677L3.80997 5.44355L3.80997 5.44355L3.63319 5.26677ZM3.50825 6.52858L3.30024 6.66725L3.30024 6.66725L3.50825 6.52858ZM4.24661 7.63612L4.45463 7.49745L4.45463 7.49745L4.24661 7.63612ZM4.43732 7.83182L4.65123 7.96121L4.77189 7.76172L4.5813 7.62744L4.43732 7.83182ZM3.29856 10.565L3.28399 10.8145L3.4908 10.8266L3.54108 10.6256L3.29856 10.565ZM3.10914 10.5782L3.15817 10.8233L3.15817 10.8233L3.10914 10.5782ZM1.80388 10.8392L1.85291 11.0844L1.85291 11.0844L1.80388 10.8392ZM1.80388 15.1608L1.75486 15.4059L1.75486 15.4059L1.80388 15.1608ZM3.10914 15.4218L3.15817 15.1767L3.15817 15.1767L3.10914 15.4218ZM3.29856 15.435L3.54108 15.3744L3.4908 15.1734L3.28399 15.1855L3.29856 15.435ZM4.47643 18.2323L4.61691 18.4391L4.81457 18.3048L4.68936 18.1013L4.47643 18.2323ZM4.27529 18.4352L4.4833 18.5739L4.4833 18.5739L4.27529 18.4352ZM3.53693 19.5428L3.74494 19.6814L3.74494 19.6814L3.53693 19.5428ZM3.66187 20.8046L3.48509 20.9813L3.48509 20.9813L3.66187 20.8046ZM5.33092 22.4736L5.50769 22.2968L5.50769 22.2968L5.33092 22.4736ZM6.59273 22.5986L6.7314 22.8066L6.7314 22.8066L6.59273 22.5986ZM7.70027 21.8602L7.5616 21.6522L7.56159 21.6522L7.70027 21.8602ZM7.92793 21.6201L8.05492 21.4047L7.83999 21.278L7.71283 21.4927L7.92793 21.6201ZM11.0743 22.8148L11.3236 22.796L11.3094 22.6059L11.1222 22.5694L11.0743 22.8148ZM11.0867 22.9051L10.8416 22.9542L10.8416 22.9542L11.0867 22.9051ZM11.3478 24.2104L11.5929 24.1614L11.5929 24.1614L11.3478 24.2104ZM15.6693 24.2104L15.9145 24.2594L15.9145 24.2594L15.6693 24.2104ZM15.9304 22.9051L16.1755 22.9542L16.1755 22.9542L15.9304 22.9051ZM15.9197 22.5671L15.8468 22.3279L15.6159 22.3983L15.6781 22.6315L15.9197 22.5671ZM18.5756 21.3026L18.7991 21.1907L18.6718 20.9365L18.436 21.0952L18.5756 21.3026ZM18.8284 21.5888L18.9671 21.3808L18.9671 21.3808L18.8284 21.5888ZM19.936 22.3272L19.7973 22.5352L19.7973 22.5352L19.936 22.3272ZM22.9918 19.2714L23.1998 19.1327L23.1998 19.1327L22.9918 19.2714ZM22.2534 18.1639L22.0454 18.3025L22.0454 18.3025L22.2534 18.1639ZM21.7519 17.8416L21.5332 17.7204L21.3605 18.032L21.7122 18.0885L21.7519 17.8416ZM22.7014 15.435L22.716 15.1855L22.5092 15.1734L22.4589 15.3744L22.7014 15.435ZM22.8909 15.4218L22.9399 15.667L22.9399 15.667L22.8909 15.4218ZM24.1961 15.1608L24.1471 14.9156L24.1471 14.9156L24.1961 15.1608ZM24.1961 10.8392L24.2451 10.5941L24.2451 10.5941L24.1961 10.8392ZM22.8909 10.5782L22.8418 10.8233L22.8418 10.8233L22.8909 10.5782ZM22.7014 10.565L22.4589 10.6256L22.5092 10.8266L22.716 10.8145L22.7014 10.565ZM21.6236 7.93391L21.4879 7.72397L21.2865 7.85415L21.4082 8.06074L21.6236 7.93391ZM21.8388 7.72164L21.6308 7.58297L21.6308 7.58297L21.8388 7.72164ZM22.5772 6.6141L22.7852 6.75277L22.7852 6.75277L22.5772 6.6141ZM22.4523 5.35229L22.2755 5.52907L22.2755 5.52907L22.4523 5.35229ZM20.7832 3.68324L20.96 3.50647L20.96 3.50647L20.7832 3.68324ZM19.5214 3.5583L19.3827 3.35029L19.3827 3.35029L19.5214 3.5583ZM18.4139 4.29666L18.2752 4.08865L18.2752 4.08865L18.4139 4.29666ZM18.228 4.47377L18.0971 4.68677L18.2927 4.80695L18.4291 4.62232L18.228 4.47377ZM15.435 3.29856L15.1855 3.28399L15.1734 3.4908L15.3744 3.54108L15.435 3.29856ZM15.4218 3.10914L15.1767 3.15817L15.1767 3.15817L15.4218 3.10914ZM15.1608 1.80388L14.9156 1.85291L14.9156 1.85291L15.1608 1.80388ZM10.8392 1.80388L10.5941 1.75486L10.5941 1.75486L10.8392 1.80388ZM11.8198 1.75H14.1802V1.25H11.8198V1.75ZM11.5747 1.95097C11.598 1.83412 11.7006 1.75 11.8198 1.75V1.25C11.4623 1.25 11.1545 1.50235 11.0844 1.85291L11.5747 1.95097ZM11.355 3.04903L11.5747 1.95097L11.0844 1.85291L10.8648 2.95097L11.355 3.04903ZM11.104 3.25H11.1099V2.75H11.104V3.25ZM11.2135 3.7644L11.3496 3.04657L10.8584 2.95343L10.7223 3.67126L11.2135 3.7644ZM10.8236 4.00744C10.8892 3.99163 10.955 3.97651 11.0211 3.9621L10.9147 3.47357C10.845 3.48876 10.7755 3.5047 10.7064 3.52137L10.8236 4.00744ZM8.12946 5.1346C8.95076 4.62492 9.85765 4.24036 10.8236 4.00744L10.7064 3.52137C9.68773 3.767 8.73152 4.17251 7.86581 4.70976L8.12946 5.1346ZM8.04082 5.19031C8.07026 5.17158 8.0998 5.15301 8.12946 5.1346L7.86581 4.70976C7.83455 4.72916 7.80341 4.74873 7.77239 4.76847L8.04082 5.19031ZM7.27296 4.84827L7.76529 5.18562L8.04792 4.77316L7.55558 4.43581L7.27296 4.84827ZM7.25556 4.83517L7.25517 4.83488L7.57337 4.4492C7.56047 4.43855 7.54697 4.42852 7.53292 4.41916L7.25556 4.83517ZM7.19334 4.79369L7.25557 4.83518L7.53292 4.41915L7.47069 4.37767L7.19334 4.79369ZM6.96066 4.63429L7.1907 4.79191L7.47333 4.37945L7.24328 4.22182L6.96066 4.63429ZM7.27618 4.6074L7.27874 4.60484L6.92521 4.25127L6.92265 4.25383L7.27618 4.6074ZM6.14802 4.09681L6.96074 4.63863L7.23809 4.2226L6.42537 3.68079L6.14802 4.09681ZM5.83257 4.12805C5.91684 4.04378 6.04887 4.03071 6.14802 4.09681L6.42537 3.68079C6.12791 3.48248 5.73182 3.5217 5.47902 3.7745L5.83257 4.12805ZM4.16352 5.7971L5.83257 4.12805L5.47902 3.7745L3.80997 5.44355L4.16352 5.7971ZM4.13229 6.11255C4.06618 6.0134 4.07926 5.88137 4.16352 5.7971L3.80997 5.44355C3.55717 5.69634 3.51795 6.09244 3.71626 6.3899L4.13229 6.11255ZM4.6741 6.92527L4.13229 6.11255L3.71626 6.3899L4.25807 7.20262L4.6741 6.92527ZM4.637 7.24659L4.64286 7.24072L4.28931 6.88716L4.28345 6.89303L4.637 7.24659ZM5.2118 7.72438L4.66645 6.9285L4.25399 7.21112L4.79934 8.00701L5.2118 7.72438ZM5.15515 8.09651C5.17517 8.06454 5.19539 8.0327 5.2158 8.00099L4.79534 7.7304C4.77384 7.76382 4.75253 7.79738 4.73142 7.83108L5.15515 8.09651ZM4.00744 10.8236C4.24348 9.84471 4.63524 8.92648 5.15515 8.09651L4.73142 7.83108C4.1834 8.70592 3.77029 9.67409 3.52137 10.7064L4.00744 10.8236ZM3.9621 11.0211C3.97651 10.955 3.99163 10.8892 4.00744 10.8236L3.52137 10.7064C3.5047 10.7755 3.48876 10.8449 3.47357 10.9147L3.9621 11.0211ZM3.04657 11.3496L3.76441 11.2135L3.67126 10.7223L2.95343 10.8584L3.04657 11.3496ZM3.25 11.1099V11.104H2.75V11.1099H3.25ZM1.95097 11.5747L3.04903 11.355L2.95097 10.8648L1.85291 11.0844L1.95097 11.5747ZM1.75 11.8198C1.75 11.7006 1.83411 11.598 1.95097 11.5747L1.85291 11.0844C1.50234 11.1545 1.25 11.4623 1.25 11.8198H1.75ZM1.75 14.1802V11.8198H1.25V14.1802H1.75ZM1.95097 14.4253C1.83412 14.402 1.75 14.2994 1.75 14.1802H1.25C1.25 14.5377 1.50235 14.8455 1.85291 14.9156L1.95097 14.4253ZM3.04903 14.645L1.95097 14.4253L1.85291 14.9156L2.95097 15.1352L3.04903 14.645ZM3.25 14.896V14.8901H2.75V14.896H3.25ZM3.7644 14.7865L3.04657 14.6504L2.95343 15.1416L3.67126 15.2777L3.7644 14.7865ZM4.00744 15.1764C3.99162 15.1108 3.97651 15.045 3.9621 14.9789L3.47356 15.0853C3.48876 15.155 3.5047 15.2245 3.52137 15.2936L4.00744 15.1764ZM5.20037 17.975C4.65793 17.1263 4.25027 16.1835 4.00744 15.1764L3.52137 15.2936C3.77746 16.3556 4.20733 17.3498 4.77909 18.2443L5.20037 17.975ZM5.26215 18.0703C5.24137 18.0387 5.22078 18.0069 5.20037 17.975L4.77909 18.2443C4.80059 18.2779 4.8223 18.3114 4.84421 18.3448L5.26215 18.0703ZM4.95055 18.797L5.25903 18.3494L4.84733 18.0657L4.53886 18.5133L4.95055 18.797ZM4.89933 18.8512C4.89901 18.8517 4.8986 18.8521 4.89817 18.8525L4.59124 18.4578C4.5498 18.49 4.5132 18.529 4.4833 18.5739L4.89933 18.8512ZM4.16096 19.9588L4.89933 18.8512L4.4833 18.5739L3.74494 19.6814L4.16096 19.9588ZM4.1922 20.2742C4.10793 20.19 4.09486 20.0579 4.16096 19.9588L3.74494 19.6814C3.54663 19.9789 3.58585 20.375 3.83865 20.6278L4.1922 20.2742ZM5.86125 21.9433L4.1922 20.2742L3.83865 20.6278L5.50769 22.2968L5.86125 21.9433ZM6.1767 21.9745C6.07754 22.0406 5.94551 22.0276 5.86125 21.9433L5.50769 22.2968C5.76049 22.5496 6.15658 22.5889 6.45405 22.3906L6.1767 21.9745ZM6.87699 21.5077L6.1767 21.9745L6.45405 22.3905L7.15434 21.9237L6.87699 21.5077ZM7.20148 21.5479L7.19244 21.5389L6.83889 21.8925L6.84793 21.9015L7.20148 21.5479ZM7.83775 20.8608L6.88284 21.5189L7.16657 21.9306L8.12148 21.2725L7.83775 20.8608ZM8.14827 20.877L8.11143 20.8542L7.8478 21.279L7.88464 21.3019L8.14827 20.877ZM11.2544 22.0856C10.1341 21.8716 9.08543 21.4556 8.14779 20.8767L7.88513 21.3022C8.87351 21.9124 9.97921 22.3511 11.1606 22.5767L11.2544 22.0856ZM11.531 22.134C11.4383 22.1193 11.3461 22.1031 11.2544 22.0856L11.1606 22.5767C11.2573 22.5952 11.3545 22.6122 11.4522 22.6278L11.531 22.134ZM11.8546 22.9534L11.7372 22.3343L11.246 22.4275L11.3634 23.0466L11.8546 22.9534ZM11.6156 22.75H11.609V23.25H11.6156V22.75ZM12.0832 24.0633L11.8607 22.951L11.3704 23.049L11.5929 24.1614L12.0832 24.0633ZM12.3283 24.2643C12.2092 24.2643 12.1066 24.1802 12.0832 24.0633L11.5929 24.1614C11.663 24.5119 11.9708 24.7643 12.3283 24.7643V24.2643ZM14.6887 24.2643H12.3283V24.7643H14.6887V24.2643ZM14.9339 24.0633C14.9105 24.1802 14.8079 24.2643 14.6887 24.2643V24.7643C15.0463 24.7643 15.3541 24.5119 15.4242 24.1614L14.9339 24.0633ZM15.1949 22.7581L14.9339 24.0633L15.4242 24.1614L15.6852 22.8561L15.1949 22.7581ZM15.1948 22.7589L15.1949 22.7581L15.6852 22.8561C15.6902 22.8313 15.6932 22.8063 15.6943 22.7813L15.1948 22.7589ZM15.3164 22.1039L15.199 22.7235L15.6902 22.8167L15.8077 22.1971L15.3164 22.1039ZM15.5418 21.8965L15.4942 21.9099L15.63 22.3911L15.6776 22.3777L15.5418 21.8965ZM18.344 20.5511C17.5027 21.1476 16.5576 21.6069 15.5412 21.8966L15.6782 22.3775C16.7502 22.0719 17.7466 21.5876 18.6332 20.9589L18.344 20.5511ZM19.4243 21.0899L18.6293 20.5484L18.3478 20.9616L19.1428 21.5032L19.4243 21.0899ZM19.1099 21.1166L19.1068 21.1198L19.4603 21.4733L19.4634 21.4702L19.1099 21.1166ZM20.352 21.7032L19.4253 21.0854L19.148 21.5014L20.0746 22.1192L20.352 21.7032ZM20.6674 21.6719C20.5832 21.7562 20.4511 21.7693 20.352 21.7032L20.0746 22.1192C20.3721 22.3175 20.7682 22.2783 21.021 22.0255L20.6674 21.6719ZM22.3365 20.0029L20.6674 21.6719L21.021 22.0255L22.69 20.3564L22.3365 20.0029ZM22.3677 19.6874C22.4338 19.7866 22.4207 19.9186 22.3365 20.0029L22.69 20.3564C22.9428 20.1036 22.982 19.7076 22.7837 19.4101L22.3677 19.6874ZM21.7499 18.7608L22.3677 19.6874L22.7837 19.4101L22.166 18.4834L21.7499 18.7608ZM21.7881 18.4384L21.7812 18.4453L22.1347 18.7989L22.1417 18.792L21.7881 18.4384ZM21.0891 17.7737L21.7583 18.756L22.1715 18.4744L21.5023 17.4921L21.0891 17.7737ZM21.9926 15.1764C21.7931 16.0034 21.4826 16.7871 21.0775 17.5108L21.5139 17.755C21.9409 16.992 22.2683 16.1657 22.4786 15.2936L21.9926 15.1764ZM22.0379 14.9789C22.0235 15.045 22.0084 15.1108 21.9926 15.1764L22.4786 15.2936C22.4953 15.2245 22.5112 15.155 22.5264 15.0853L22.0379 14.9789ZM22.9534 14.6504L22.2356 14.7865L22.3287 15.2777L23.0466 15.1416L22.9534 14.6504ZM22.75 14.8901V14.896H23.25V14.8901H22.75ZM23.049 15.1352L24.1471 14.9156L24.049 14.4253L22.951 14.645L23.049 15.1352ZM24.1471 14.9156C24.4977 14.8455 24.75 14.5377 24.75 14.1802H24.25C24.25 14.2994 24.1659 14.402 24.049 14.4253L24.1471 14.9156ZM24.75 14.1802V11.8198H24.25V14.1802H24.75ZM24.75 11.8198C24.75 11.4623 24.4977 11.1545 24.1471 11.0844L24.049 11.5747C24.1659 11.598 24.25 11.7006 24.25 11.8198H24.75ZM24.1471 11.0844L23.049 10.8648L22.951 11.355L24.049 11.5747L24.1471 11.0844ZM22.75 11.104V11.1099H23.25V11.104H22.75ZM22.2356 11.2135L22.9534 11.3496L23.0466 10.8584L22.3287 10.7223L22.2356 11.2135ZM21.9926 10.8236C22.0084 10.8892 22.0235 10.955 22.0379 11.0211L22.5264 10.9147C22.5112 10.845 22.4953 10.7755 22.4786 10.7064L21.9926 10.8236ZM20.8937 8.17538C21.3893 8.98452 21.764 9.87561 21.9926 10.8236L22.4786 10.7064C22.2376 9.70668 21.8425 8.76711 21.3201 7.91421L20.8937 8.17538ZM17.9504 5.18475C19.1451 5.94311 20.1541 6.96789 20.8937 8.17538L21.3201 7.91421C20.5406 6.64164 19.4774 5.56182 18.2184 4.76262L17.9504 5.18475ZM15.1764 4.00744C16.1738 4.24794 17.1082 4.6501 17.9504 5.18475L18.2184 4.76262C17.3306 4.19907 16.3454 3.775 15.2936 3.52137L15.1764 4.00744ZM14.9789 3.9621C15.045 3.97651 15.1108 3.99163 15.1764 4.00744L15.2936 3.52137C15.2245 3.5047 15.1551 3.48876 15.0853 3.47357L14.9789 3.9621ZM14.6504 3.04657L14.7865 3.76441L15.2777 3.67127L15.1416 2.95343L14.6504 3.04657ZM14.8901 3.25H14.896V2.75H14.8901V3.25ZM14.4253 1.95097L14.645 3.04903L15.1352 2.95097L14.9156 1.85291L14.4253 1.95097ZM14.1802 1.75C14.2994 1.75 14.402 1.83411 14.4253 1.95097L14.9156 1.85291C14.8455 1.50234 14.5377 1.25 14.1802 1.25V1.75ZM10.8145 3.28399C10.8121 3.24236 10.8149 3.20012 10.8233 3.15817L10.333 3.06011C10.3162 3.14431 10.3105 3.22931 10.3154 3.31312L10.8145 3.28399ZM8.00253 4.62637C8.80884 4.1441 9.69051 3.77505 10.6256 3.54108L10.5043 3.05603C9.52074 3.30211 8.59357 3.69024 7.74587 4.19727L8.00253 4.62637ZM7.53292 4.41915C7.58677 4.45505 7.63215 4.5005 7.66751 4.55246L8.0809 4.27119C8.0098 4.1667 7.91846 4.07525 7.81027 4.00313L7.53292 4.41915ZM6.42537 3.68079L7.53292 4.41915L7.81027 4.00313L6.70272 3.26476L6.42537 3.68079ZM5.47902 3.7745C5.73182 3.5217 6.12791 3.48248 6.42537 3.68079L6.70272 3.26476C6.20695 2.93425 5.5468 2.99961 5.12547 3.42094L5.47902 3.7745ZM3.80997 5.44355L5.47902 3.7745L5.12547 3.42094L3.45642 5.08999L3.80997 5.44355ZM3.71626 6.3899C3.51795 6.09244 3.55717 5.69634 3.80997 5.44355L3.45642 5.08999C3.03509 5.51132 2.96972 6.17147 3.30024 6.66725L3.71626 6.3899ZM4.45463 7.49745L3.71626 6.3899L3.30024 6.66725L4.0386 7.7748L4.45463 7.49745ZM4.5813 7.62744C4.5321 7.59278 4.48899 7.54899 4.45463 7.49745L4.0386 7.7748C4.10764 7.87836 4.19439 7.96649 4.29333 8.03619L4.5813 7.62744ZM3.54108 10.6256C3.77905 9.67451 4.15677 8.77868 4.65123 7.96121L4.2234 7.70243C3.70356 8.56186 3.30632 9.50392 3.05603 10.5043L3.54108 10.6256ZM3.15817 10.8233C3.20011 10.8149 3.24236 10.8121 3.28399 10.8145L3.31312 10.3154C3.22932 10.3105 3.14432 10.3162 3.06011 10.333L3.15817 10.8233ZM1.85291 11.0844L3.15817 10.8233L3.06011 10.333L1.75485 10.5941L1.85291 11.0844ZM1.25 11.8198C1.25 11.4623 1.50234 11.1545 1.85291 11.0844L1.75485 10.5941C1.17057 10.7109 0.75 11.224 0.75 11.8198H1.25ZM1.25 14.1802V11.8198H0.75V14.1802H1.25ZM1.85291 14.9156C1.50235 14.8455 1.25 14.5377 1.25 14.1802H0.75C0.75 14.776 1.17058 15.2891 1.75486 15.4059L1.85291 14.9156ZM3.15817 15.1767L1.85291 14.9156L1.75486 15.4059L3.06011 15.667L3.15817 15.1767ZM3.28399 15.1855C3.24236 15.1879 3.20011 15.1851 3.15817 15.1767L3.06011 15.667C3.14432 15.6838 3.22932 15.6895 3.31312 15.6846L3.28399 15.1855ZM4.68936 18.1013C4.17616 17.2671 3.78513 16.3498 3.54108 15.3744L3.05603 15.4957C3.31272 16.5216 3.72396 17.4862 4.2635 18.3633L4.68936 18.1013ZM4.4833 18.5739C4.51927 18.5199 4.56482 18.4745 4.61691 18.4391L4.33595 18.0255C4.23121 18.0967 4.13954 18.1881 4.06728 18.2965L4.4833 18.5739ZM3.74494 19.6814L4.4833 18.5739L4.06728 18.2965L3.32891 19.4041L3.74494 19.6814ZM3.83865 20.6278C3.58585 20.375 3.54663 19.9789 3.74494 19.6814L3.32891 19.4041C2.99839 19.8999 3.06376 20.56 3.48509 20.9813L3.83865 20.6278ZM5.50769 22.2968L3.83865 20.6278L3.48509 20.9813L5.15414 22.6504L5.50769 22.2968ZM6.45405 22.3905C6.15658 22.5889 5.76049 22.5496 5.50769 22.2968L5.15414 22.6504C5.57547 23.0717 6.23562 23.1371 6.7314 22.8066L6.45405 22.3905ZM7.56159 21.6522L6.45405 22.3905L6.7314 22.8066L7.83894 22.0682L7.56159 21.6522ZM7.71283 21.4927C7.67555 21.5556 7.62429 21.6104 7.5616 21.6522L7.83894 22.0682C7.96497 21.9842 8.06811 21.874 8.14303 21.7475L7.71283 21.4927ZM11.1222 22.5694C10.0225 22.3549 8.98885 21.9555 8.05492 21.4047L7.80095 21.8354C8.78287 22.4144 9.86988 22.8345 11.0265 23.0601L11.1222 22.5694ZM11.3319 22.8561C11.3279 22.8361 11.3251 22.8161 11.3236 22.796L10.825 22.8335C10.8281 22.8737 10.8335 22.914 10.8416 22.9542L11.3319 22.8561ZM11.5929 24.1614L11.3319 22.8561L10.8416 22.9542L11.1026 24.2594L11.5929 24.1614ZM12.3283 24.7643C11.9708 24.7643 11.663 24.5119 11.5929 24.1614L11.1026 24.2594C11.2195 24.8437 11.7325 25.2643 12.3283 25.2643V24.7643ZM14.6887 24.7643H12.3283V25.2643H14.6887V24.7643ZM15.4242 24.1614C15.3541 24.5119 15.0463 24.7643 14.6887 24.7643V25.2643C15.2846 25.2643 15.7976 24.8437 15.9145 24.2594L15.4242 24.1614ZM15.6852 22.8561L15.4242 24.1614L15.9145 24.2594L16.1755 22.9542L15.6852 22.8561ZM15.6781 22.6315C15.6974 22.7038 15.7003 22.7805 15.6852 22.8561L16.1755 22.9542C16.2059 22.8022 16.2 22.6479 16.1612 22.5026L15.6781 22.6315ZM18.436 21.0952C17.647 21.6261 16.7763 22.0446 15.8468 22.3279L15.9925 22.8062C16.9702 22.5082 17.8858 22.0681 18.7151 21.51L18.436 21.0952ZM18.9671 21.3808C18.8944 21.3324 18.8371 21.2665 18.7991 21.1907L18.352 21.4146C18.4283 21.5669 18.5436 21.6995 18.6897 21.7969L18.9671 21.3808ZM20.0746 22.1192L18.9671 21.3808L18.6897 21.7969L19.7973 22.5352L20.0746 22.1192ZM21.021 22.0255C20.7682 22.2783 20.3721 22.3175 20.0746 22.1192L19.7973 22.5352C20.2931 22.8657 20.9532 22.8004 21.3745 22.379L21.021 22.0255ZM22.69 20.3564L21.021 22.0255L21.3745 22.379L23.0436 20.71L22.69 20.3564ZM22.7837 19.4101C22.982 19.7076 22.9428 20.1036 22.69 20.3564L23.0436 20.71C23.4649 20.2887 23.5303 19.6285 23.1998 19.1327L22.7837 19.4101ZM22.0454 18.3025L22.7837 19.4101L23.1998 19.1327L22.4614 18.0252L22.0454 18.3025ZM21.7122 18.0885C21.8471 18.1101 21.9683 18.187 22.0454 18.3025L22.4614 18.0252C22.3065 17.7928 22.0626 17.6384 21.7915 17.5948L21.7122 18.0885ZM22.4589 15.3744C22.2515 16.2035 21.9378 16.9906 21.5332 17.7204L21.9705 17.9629C22.3959 17.1955 22.7258 16.3678 22.944 15.4957L22.4589 15.3744ZM22.8418 15.1767C22.7999 15.1851 22.7576 15.1879 22.716 15.1855L22.6869 15.6846C22.7707 15.6895 22.8557 15.6838 22.9399 15.667L22.8418 15.1767ZM24.1471 14.9156L22.8418 15.1767L22.9399 15.667L24.2451 15.4059L24.1471 14.9156ZM24.75 14.1802C24.75 14.5377 24.4977 14.8455 24.1471 14.9156L24.2451 15.4059C24.8294 15.2891 25.25 14.776 25.25 14.1802H24.75ZM24.75 11.8198V14.1802H25.25V11.8198H24.75ZM24.1471 11.0844C24.4977 11.1545 24.75 11.4623 24.75 11.8198H25.25C25.25 11.224 24.8294 10.7109 24.2451 10.5941L24.1471 11.0844ZM22.8418 10.8233L24.1471 11.0844L24.2451 10.5941L22.9399 10.333L22.8418 10.8233ZM22.716 10.8145C22.7576 10.8121 22.7999 10.8149 22.8418 10.8233L22.9399 10.333C22.8557 10.3162 22.7707 10.3105 22.6869 10.3154L22.716 10.8145ZM21.4082 8.06074C21.8735 8.85121 22.2306 9.71296 22.4589 10.6256L22.944 10.5043C22.7038 9.54436 22.3283 8.63813 21.839 7.80707L21.4082 8.06074ZM21.6308 7.58297C21.5927 7.64012 21.5439 7.68776 21.4879 7.72397L21.7594 8.14384C21.8719 8.07104 21.9703 7.97517 22.0469 7.86032L21.6308 7.58297ZM22.3692 6.47542L21.6308 7.58297L22.0469 7.86032L22.7852 6.75277L22.3692 6.47542ZM22.2755 5.52907C22.5283 5.78187 22.5675 6.17796 22.3692 6.47542L22.7852 6.75277C23.1157 6.257 23.0504 5.59685 22.629 5.17551L22.2755 5.52907ZM20.6064 3.86002L22.2755 5.52907L22.629 5.17551L20.96 3.50647L20.6064 3.86002ZM19.6601 3.76631C19.9576 3.568 20.3536 3.60722 20.6064 3.86002L20.96 3.50647C20.5387 3.08513 19.8785 3.01977 19.3827 3.35029L19.6601 3.76631ZM18.5525 4.50467L19.6601 3.76631L19.3827 3.35029L18.2752 4.08865L18.5525 4.50467ZM18.4291 4.62232C18.4626 4.57687 18.5042 4.53692 18.5525 4.50467L18.2752 4.08865C18.178 4.15343 18.0944 4.23381 18.0269 4.32523L18.4291 4.62232ZM15.3744 3.54108C16.3482 3.78472 17.264 4.17485 18.0971 4.68677L18.3589 4.26077C17.483 3.72258 16.5199 3.31229 15.4957 3.05603L15.3744 3.54108ZM15.1767 3.15817C15.1851 3.20012 15.1879 3.24236 15.1855 3.28399L15.6846 3.31312C15.6895 3.22931 15.6838 3.14431 15.667 3.06011L15.1767 3.15817ZM14.9156 1.85291L15.1767 3.15817L15.667 3.06011L15.4059 1.75485L14.9156 1.85291ZM14.1802 1.25C14.5377 1.25 14.8455 1.50234 14.9156 1.85291L15.4059 1.75485C15.2891 1.17057 14.776 0.75 14.1802 0.75V1.25ZM11.8198 1.25H14.1802V0.75H11.8198V1.25ZM11.0844 1.85291C11.1545 1.50235 11.4623 1.25 11.8198 1.25V0.75C11.224 0.75 10.7109 1.17058 10.5941 1.75486L11.0844 1.85291ZM10.8233 3.15817L11.0844 1.85291L10.5941 1.75486L10.333 3.06011L10.8233 3.15817ZM13 18.75C16.1756 18.75 18.75 16.1756 18.75 13H18.25C18.25 15.8995 15.8995 18.25 13 18.25V18.75ZM7.25 13C7.25 16.1756 9.82436 18.75 13 18.75V18.25C10.1005 18.25 7.75 15.8995 7.75 13H7.25ZM13 7.25C9.82436 7.25 7.25 9.82436 7.25 13H7.75C7.75 10.1005 10.1005 7.75 13 7.75V7.25ZM18.75 13C18.75 9.82436 16.1756 7.25 13 7.25V7.75C15.8995 7.75 18.25 10.1005 18.25 13H18.75ZM13 19.25C16.4518 19.25 19.25 16.4518 19.25 13H18.75C18.75 16.1756 16.1756 18.75 13 18.75V19.25ZM6.75 13C6.75 16.4518 9.54822 19.25 13 19.25V18.75C9.82436 18.75 7.25 16.1756 7.25 13H6.75ZM13 6.75C9.54822 6.75 6.75 9.54822 6.75 13H7.25C7.25 9.82436 9.82436 7.25 13 7.25V6.75ZM19.25 13C19.25 9.54822 16.4518 6.75 13 6.75V7.25C16.1756 7.25 18.75 9.82436 18.75 13H19.25Z" fill="white"/>
</svg>
